<svg width="263" height="42" viewBox="0 0 263 42" fill="inherit" xmlns="http://www.w3.org/2000/svg">
<path d="M18.7774 3.39571C17.6519 6.97017 17.5927 7.32762 18.2443 7.32762C18.7181 7.32762 21.3244 2.32337 21.3244 1.42976C21.3244 1.13189 20.969 0.774439 20.5544 0.595716C19.962 0.357417 19.4289 1.25103 18.7774 3.39571Z" fill="inherit"/>
<path d="M26.6553 9.71062V19.4213L30.387 19.1234C32.4602 18.9447 35.1258 18.3489 36.3697 17.7532C42.1154 15.0128 42.3523 5.06381 36.7843 1.72766C35.5996 1.07234 33.2303 0.476595 30.7424 0.297873L26.6553 0V9.71062ZM34.3557 2.91915C37.199 4.05106 38.5021 6.19576 38.5021 9.65106C38.5021 14.5362 36.1327 16.8596 31.0978 16.8596H28.4323V9.41278V1.96596H30.2093C31.1571 1.96596 33.0526 2.38298 34.3557 2.91915Z" fill="inherit"/>
<path d="M44.4258 9.71062V19.2426H49.5201C54.0217 19.2426 54.5548 19.1234 54.3771 18.1702C54.1994 17.3362 53.4886 17.1574 50.3491 17.0979L46.4991 17.0383L46.3214 13.7021L46.1437 10.366L50.1714 10.1872C53.4295 10.0681 54.1994 9.82978 54.3771 8.93617C54.5548 8.04255 54.0808 7.92339 50.3491 7.92339H46.1437L46.3214 5.06381L46.4991 2.26382L50.5268 2.08509C53.5477 1.96594 54.4957 1.72765 54.4957 1.07233C54.4957 0.357435 53.4886 0.178711 49.4605 0.178711H44.4258V9.71062Z" fill="inherit"/>
<path d="M60.0044 0.893645C59.2936 1.25109 58.4051 2.26385 58.0497 3.21705C57.1017 5.48089 58.3456 7.44685 61.7815 9.17448C63.1436 9.88937 64.7429 10.8426 65.3355 11.3788C66.5199 12.3915 66.6976 15.0723 65.6314 16.1447C64.6247 17.1575 60.952 17.0383 59.3527 15.9064C58.2865 15.1915 58.0497 15.132 58.0497 15.8468C58.0497 18.9447 64.447 20.0766 67.1716 17.5149C70.3703 14.4766 68.8896 11.2 62.9068 7.92341C60.7743 6.79151 60.0635 6.07662 59.9449 4.82556C59.7081 2.56173 62.0183 1.42982 64.7429 2.44258C67.053 3.3362 68.1192 2.44258 66.2831 1.13194C64.7429 0.0596007 61.9592 -0.0595484 60.0044 0.893645Z" fill="inherit"/>
<path d="M72.2661 9.71062C72.2661 17.8128 72.3843 19.2426 73.1546 19.2426C73.9245 19.2426 74.0431 17.8128 74.0431 9.71062C74.0431 1.6085 73.9245 0.178711 73.1546 0.178711C72.3843 0.178711 72.2661 1.6085 72.2661 9.71062Z" fill="inherit"/>
<path d="M83.0463 1.19152C76.1754 4.58726 76.0568 14.4171 82.9281 17.8724C86.0672 19.4809 87.9629 19.6 91.2206 18.2894C94.1234 17.0979 95.7818 14.8937 96.3149 11.5575L96.7294 9.05535L92.4054 9.23407C86.8967 9.47236 85.9491 10.783 91.0429 11.0213C94.1234 11.2 94.4788 11.3192 94.3011 12.3915C94.1825 13.0468 93.294 14.3575 92.2868 15.3107C90.6284 16.8596 90.1544 16.9787 86.8967 16.7405C83.698 16.5022 83.1649 16.2638 81.6247 14.4766C78.2483 10.366 80.0253 4.22982 85.001 2.56173C87.6075 1.72769 90.1544 2.26386 92.3464 4.11067C93.7084 5.2426 94.1825 5.36172 94.7156 4.76599C95.1896 4.11067 95.0119 3.63407 94.0048 2.68088C91.2206 0.0596054 86.5413 -0.595714 83.0463 1.19152Z" fill="inherit"/>
<path d="M114.796 7.38722L114.618 14.5362L110.768 10.8425C108.635 8.81701 105.377 5.65955 103.541 3.87233L100.105 0.53616V9.94891C100.105 18.5872 100.165 19.3021 101.172 19.1234C102.06 18.9447 102.179 18.0511 102.357 11.7957L102.534 4.70637L109.583 11.7957L116.691 18.9447V9.5319C116.691 1.72765 116.573 0.178711 115.803 0.178711C115.092 0.178711 114.914 1.48935 114.796 7.38722Z" fill="inherit"/>
<path d="M147.553 0.655355C150.692 8.69789 154.898 18.5277 155.194 18.349C155.431 18.2298 156.734 15.1319 158.156 11.5575C159.518 7.92344 160.88 5.06386 161.058 5.24259C161.295 5.36175 162.598 8.28088 164.079 11.7362C165.5 15.1915 166.863 18.0511 167.041 18.0511C167.633 18.0511 174.919 0.774506 174.504 0.357485C173.616 -0.595708 172.431 1.2511 170.062 7.2681C168.581 10.9022 167.218 13.8809 166.982 13.8809C166.744 13.8809 165.382 10.9617 163.961 7.32771C162.598 3.75323 161.295 0.774506 161.117 0.774506C160.94 0.774506 159.636 3.75323 158.215 7.38727C156.734 10.9617 155.431 14.0596 155.253 14.1788C155.016 14.2979 153.594 11.2596 152.114 7.44683C150.337 2.91919 148.974 0.417059 148.323 0.29791C147.79 0.178762 147.434 0.29791 147.553 0.655355Z" fill="inherit"/>
<path d="M194.288 9.65107C194.288 17.7532 194.407 19.2426 195.177 19.2426C195.887 19.2426 196.065 18.349 196.065 14.7744C196.065 12.3319 196.302 10.3064 196.539 10.3064C196.835 10.3064 198.316 12.3319 199.856 14.7744C201.811 17.8723 203.055 19.2426 203.825 19.2426C205.187 19.2426 205.187 19.183 201.574 14L198.968 10.2468L200.804 9.59146C202.936 8.87657 204.358 6.31488 203.884 4.05106C203.47 1.66808 201.633 0.595738 197.842 0.297868L194.288 0.0595703V9.65107ZM200.685 2.91915C202.285 4.05106 202.403 6.49361 200.863 7.32766C200.212 7.62551 198.908 7.92339 197.902 7.92339C196.125 7.92339 196.065 7.80423 196.065 5.36171C196.065 3.93191 196.243 2.5617 196.48 2.38298C197.131 1.66808 199.323 1.96595 200.685 2.91915Z" fill="inherit"/>
<path d="M208.504 9.77021V19.4213L212.592 19.0638C220.233 18.4085 222.898 15.7276 222.602 8.99571C222.425 5.54041 222.128 4.76595 220.648 3.15744C218.633 1.07233 215.968 0.178711 211.644 0.178711H208.504V9.77021ZM215.731 2.56169C220.825 3.99147 222.78 10.6042 219.285 14.5361C217.864 16.1446 217.094 16.5021 214.25 16.7404L210.874 16.9787V9.47232C210.874 1.01276 210.755 1.19148 215.731 2.56169Z" fill="inherit"/>
<path d="M230.421 15.7872C230.421 26.034 230.658 31.1575 231.014 30.5617C231.31 30.0851 233.087 25.2 234.982 19.7192C236.878 14.1787 238.536 9.71064 238.714 9.71064C238.892 9.71064 240.965 15.2511 243.394 22.0426C245.822 28.8936 248.369 36.0425 249.08 38.0085L250.383 41.583L256.662 41.7617L263 41.9404V21.0298V0.178711H246.711H230.421V15.7872Z" fill="inherit"/>
<path d="M5.50878 6.73188C1.54009 15.0723 0 18.5276 0 18.8851C0 19.1234 0.355405 19.2425 0.829281 19.2425C1.30315 19.2425 2.31014 18.1702 3.02095 16.8596L4.38333 14.4765H8.35203H12.2615L13.8608 16.8596C15.2232 18.9446 17.1779 20.0766 17.1779 18.7659C17.1779 18.5276 15.2232 14.2978 12.7946 9.41273L8.41125 0.476562L5.50878 6.73188ZM10.4252 8.817C11.1953 10.6638 11.8469 12.2723 11.8469 12.3915C11.8469 12.5702 10.366 12.6893 8.58895 12.6893C6.81192 12.6893 5.33108 12.5702 5.33108 12.3915C5.33108 11.7361 8.29281 5.54038 8.58895 5.54038C8.76665 5.54038 9.59595 7.02977 10.4252 8.817Z" fill="inherit"/>
<path d="M135.706 9.35315C133.396 14.1787 131.5 18.4085 131.5 18.7064C131.5 20.1362 133.336 19.0042 134.521 16.8595L135.883 14.4766H139.911H143.88L145.242 16.8595C146.013 18.1702 147.079 19.2425 147.671 19.2425C148.204 19.2425 148.678 19.1234 148.678 19.0042C148.678 18.8851 146.723 14.6553 144.295 9.65103L139.911 0.476562L135.706 9.35315ZM142.932 12.2127C142.577 12.8681 136.831 12.8085 136.831 12.1532C136.831 11.8553 137.542 10.068 138.43 8.16169L140.03 4.64678L141.57 8.22125C142.458 10.1872 143.051 11.9744 142.932 12.2127Z" fill="inherit"/>
<path d="M179.48 6.25537C173.675 18.8852 173.497 19.2426 174.622 19.2426C175.156 19.2426 176.222 18.1703 176.992 16.8597L178.354 14.4766H182.323H186.351L187.713 16.8597C188.898 19.0043 190.734 20.0767 190.734 18.6469C190.734 17.932 182.619 0.774536 182.264 0.774536C182.145 0.774536 180.902 3.27666 179.48 6.25537ZM184.159 8.87666C184.811 10.7235 185.403 12.332 185.403 12.4511C185.403 12.5703 184.1 12.6894 182.441 12.6894C180.25 12.6894 179.48 12.4511 179.48 11.7958C179.48 10.7235 181.968 5.54048 182.501 5.54048C182.679 5.54048 183.448 7.02987 184.159 8.87666Z" fill="inherit"/>
<path d="M29.1432 23.7703C27.4846 24.9022 27.4254 27.5234 29.0839 29.6085C29.7355 30.4426 30.0317 31.1575 29.7355 31.1575C29.3801 31.1575 28.3139 31.9319 27.3069 32.8851C25.056 35.0298 24.8783 37.5915 26.833 39.7362C28.847 42 31.2163 42.1788 34.5927 40.3915L37.4359 38.9021L38.6206 40.3915C39.2722 41.2255 40.1607 41.8809 40.6346 41.8809C41.7601 41.8809 41.7008 41.5234 39.9238 39.2L38.3837 37.1745L39.6869 35.5064C41.1677 33.6 40.2792 32.8255 38.4429 34.4937C37.3175 35.5064 37.199 35.5064 35.0666 33.3617L32.9341 31.1575L34.5335 29.4894C36.3697 27.5234 36.6067 25.2 35.0666 23.8298C33.7042 22.5788 30.8609 22.5192 29.1432 23.7703ZM34.0004 25.9149C34.8297 27.2256 33.8819 29.0128 32.1641 29.2511C30.5648 29.4894 29.1432 26.8086 30.2094 25.4979C31.1571 24.3064 33.1118 24.5447 34.0004 25.9149ZM34.5335 35.566L35.7182 37.2936L34.415 38.366C32.401 40.0341 29.2616 39.8554 28.077 38.0085C26.9515 36.2809 27.3661 34.6128 29.4393 32.9447C30.9202 31.8128 31.0386 31.7532 32.1641 32.766C32.7564 33.3617 33.8227 34.6128 34.5335 35.566Z" fill="inherit"/>
<path d="M58.6419 24.1277C53.7849 26.6298 52.0078 31.5149 54.2584 36.2809C55.5023 38.9021 57.8125 40.5107 61.3665 41.3447C64.9801 42.1192 69.4818 40.9873 69.7781 39.2596C69.9558 38.366 69.7781 38.2469 68.9487 38.6043C68.2969 38.8426 66.4017 39.2 64.7429 39.3788C58.9382 39.9149 55.68 37.3532 55.68 32.2298C55.68 29.6681 55.9764 28.9532 57.6348 27.2851C60.1226 24.783 63.6767 24.1277 67.4084 25.3788C69.7186 26.2128 69.9558 26.2128 69.7781 25.3192C69.245 22.6383 62.8477 21.983 58.6419 24.1277Z" fill="inherit"/>
<path d="M77.8928 23.7107C75.2867 25.1405 73.9833 26.4511 73.0948 28.5958C71.9695 31.2171 72.0881 33.3618 73.3911 36.2809C74.9313 39.7362 78.0114 41.4639 82.3948 41.4639C95.2485 41.4639 95.8407 23.7703 83.0461 22.9958C80.736 22.8171 79.1367 23.0554 77.8928 23.7107ZM85.534 25.4384C91.1614 27.8213 91.7536 35.8639 86.4225 38.6639C80.3806 41.7618 72.9171 36.6383 74.635 30.5022C75.9976 25.7958 80.9137 23.4724 85.534 25.4384Z" fill="inherit"/>
<path d="M119.653 32.349C119.653 40.4511 119.771 41.8809 120.541 41.8809C121.252 41.8809 121.43 41.0468 121.43 37.7107V33.5404H123.8C127.946 33.5404 130.315 29.6085 128.775 25.4979C128.183 24.0085 125.339 22.817 122.318 22.817H119.653V32.349ZM126.583 26.2128C128.36 28.5958 126.406 31.7532 123.207 31.7532H121.43V28.1192V24.4255L123.622 24.783C124.866 25.0213 126.228 25.617 126.583 26.2128Z" fill="inherit"/>
<path d="M132.685 32.3489V41.9404L137.601 41.7617C141.452 41.6425 142.459 41.4043 142.459 40.6894C142.459 40.034 141.57 39.7362 138.786 39.617L135.054 39.4383V35.9234V32.3489H138.905C141.926 32.3489 142.755 32.1702 142.755 31.4553C142.755 30.7404 141.926 30.5617 138.905 30.5617H135.054V27.583V24.6043H138.905C141.926 24.6043 142.755 24.4255 142.755 23.7106C142.755 22.9957 141.807 22.817 137.72 22.817H132.685V32.3489Z" fill="inherit"/>
<path d="M145.124 23.6511C145.124 24.2468 145.894 24.6043 147.375 24.7234L149.567 24.9021L149.744 33.3617C149.862 40.3319 150.04 41.8809 150.751 41.8809C151.462 41.8809 151.639 40.3319 151.758 33.3617L151.936 24.9021L154.187 24.7234C155.608 24.6043 156.378 24.2468 156.378 23.6511C156.378 22.9957 155.253 22.817 150.751 22.817C146.249 22.817 145.124 22.9957 145.124 23.6511Z" fill="inherit"/>
<path d="M159.162 32.1702C159.281 40.1532 159.399 41.583 160.169 41.7617C160.999 41.9404 161.117 40.7489 161.117 32.4085C161.117 23.651 160.999 22.817 160.11 22.817C159.103 22.817 159.044 23.5915 159.162 32.1702Z" fill="inherit"/>
<path d="M163.486 23.7106C163.486 24.3064 164.138 24.6043 165.56 24.6043H167.573L167.751 33.0638C167.929 40.6298 168.048 41.583 168.995 41.7617C169.943 41.9404 170.002 41.2255 170.002 33.3021V24.6043H172.075C173.497 24.6043 174.148 24.3064 174.148 23.7106C174.148 22.9957 173.141 22.817 168.817 22.817C164.493 22.817 163.486 22.9957 163.486 23.7106Z" fill="inherit"/>
<path d="M177.821 32.1702C177.999 40.0936 178.117 41.583 178.887 41.583C179.657 41.583 179.776 40.0936 179.954 32.1702C180.072 23.0553 180.072 22.817 178.887 22.817C177.703 22.817 177.703 23.0553 177.821 32.1702Z" fill="inherit"/>
<path d="M187.95 24.0085C184.692 25.4979 183.034 28.1787 183.034 32.0511C183.034 40.8681 193.34 44.8596 200.093 38.6639C201.989 36.8766 202.226 36.3405 202.462 33.0639C202.7 30.0851 202.462 29.0724 201.456 27.3447C198.908 23.2341 192.866 21.7447 187.95 24.0085ZM196.598 25.6766C198.849 26.9277 200.804 30.0256 200.804 32.4086C200.804 34.3745 198.553 37.7703 196.658 38.7234C195.828 39.1405 193.933 39.4979 192.333 39.4979C189.964 39.4979 189.194 39.2 187.417 37.532C180.724 31.3958 188.542 21.3277 196.598 25.6766Z" fill="inherit"/>
<path d="M220.944 29.6681C220.944 33.4213 220.766 36.5192 220.47 36.5192C220.233 36.5192 217.093 33.5404 213.539 29.966C209.985 26.3319 206.846 23.4127 206.55 23.4127C206.313 23.4127 206.194 27.5234 206.253 32.4681C206.431 40.5106 206.55 41.583 207.438 41.7617C208.386 41.9404 208.504 41.2255 208.623 34.7915L208.801 27.6425L215.79 34.5532L222.721 41.4043V32.1106C222.721 24.2468 222.602 22.817 221.832 22.817C221.121 22.817 220.944 23.9489 220.944 29.6681Z" fill="inherit"/>
<path d="M97.5586 24.9022C97.3218 25.9149 96.7887 29.3702 96.2556 32.6468C95.7816 35.9235 95.1894 39.3192 95.0117 40.2128C94.7744 41.4639 94.8931 41.8809 95.5448 41.8809C96.7292 41.8809 96.8478 41.3447 97.7363 34.8511C98.1508 31.8128 98.6839 29.549 98.9802 29.7873C99.217 30.0256 100.698 32.766 102.357 35.8043L105.259 41.3447L107.036 38.1873C107.984 36.4596 109.346 33.7788 110.116 32.1703C110.945 30.6213 111.656 29.4894 111.834 29.6681C111.953 29.7873 112.486 32.4085 112.9 35.4468C113.67 40.6894 114.44 42.5958 115.329 41.7022C115.803 41.166 113.196 24.0085 112.604 24.0085C112.367 24.0085 110.65 27.166 108.754 30.9788L105.318 38.0086L101.587 30.5618C98.2103 23.7703 97.8549 23.2937 97.5586 24.9022Z" fill="inherit"/>
<path d="M236.759 24.8426C235.338 26.9873 233.383 33.2426 233.383 35.6256C233.383 38.7831 235.042 40.0937 239.01 40.0937C241.794 40.0937 242.387 39.915 243.216 38.6043C245.526 35.0894 242.09 23.4128 238.714 23.4128C238.122 23.4128 237.233 24.0681 236.759 24.8426Z" fill="inherit"/>
</svg>
