<svg width="269" height="25" viewBox="0 0 269 25" fill="inherit" xmlns="http://www.w3.org/2000/svg">
<g clip-path="url(#clip0_318_352)">
<path d="M56.7491 7.25429C53.9504 7.25429 52.2101 8.60117 51.3399 10.1607V0.401733H48.4002V24.5747H51.3399V14.7921C51.3399 12.122 52.9627 9.85353 55.8084 9.85353C58.2778 9.85353 59.6183 11.0586 59.6183 14.7212V24.5747H62.558V13.9651C62.558 11.9802 62.2053 10.5152 61.4997 9.40457C60.559 8.01043 58.9363 7.25429 56.7491 7.25429ZM76.6924 2.26846H73.7527V7.63236H70.5072V10.0898H73.7527V24.5747H76.6924V10.0898H80.4083V7.65599H76.6924V2.26846ZM39.4868 22.5426C36.6176 22.5426 34.501 20.2032 34.501 16.139C34.501 12.0747 36.4765 9.71175 39.4868 9.71175C41.9562 9.71175 43.3908 11.1295 44.0963 13.138L46.5422 11.862C45.4134 8.97924 43.0145 7.27791 39.5103 7.27791C34.8067 7.27791 31.5142 10.7751 31.5142 16.2099C31.5142 21.6446 34.5245 25.0237 39.5103 25.0237C42.8028 25.0237 45.3193 23.4877 46.7069 20.6758L44.4021 19.4944C43.5084 21.3847 41.9797 22.5426 39.4868 22.5426ZM101.245 9.92442V7.65599H88.5455V10.1135H97.5765L88.0987 22.2354V24.5747H101.363V22.1172H91.5559L101.245 9.92442ZM110.159 7.25429C105.526 7.25429 102.163 10.846 102.163 16.0445C102.163 21.6919 105.384 25 110.206 25C114.815 25 117.002 22.0936 117.637 21.0775L115.521 19.5416C114.486 21.3611 112.558 22.448 110.488 22.4244C106.772 22.4244 105.22 19.5416 105.126 16.7533H117.731V16.1153C117.731 11.1059 115.215 7.25429 110.159 7.25429ZM105.243 14.4376C105.573 11.484 107.572 9.64086 110.159 9.64086C112.816 9.64086 114.439 11.4603 114.698 14.4376H105.243V14.4376ZM128.079 7.20703C125.751 7.20703 123.376 8.88472 122.976 10.846V7.65599H120.036V24.5747H122.976V15.7136C122.976 12.8781 124.74 10.0189 127.938 10.0189C128.315 10.0189 128.667 10.0662 129.044 10.1371V7.32517C128.714 7.25429 128.385 7.20703 128.079 7.20703ZM65.1921 7.65599H68.1318V24.5747H65.1921V7.65599Z" fill="inherit"/>
<path d="M66.6505 4.06427C67.7675 4.06427 68.673 3.15445 68.673 2.03214C68.673 0.909818 67.7675 0 66.6505 0C65.5335 0 64.6279 0.909818 64.6279 2.03214C64.6279 3.15445 65.5335 4.06427 66.6505 4.06427Z" fill="inherit"/>
<path d="M25.3525 10.846V7.65599H22.4127V24.5747H25.3525V15.7136C25.3525 12.8781 27.1164 10.0189 30.3148 10.0189C30.6911 10.0189 31.0439 10.0662 31.4202 10.1371V7.32517C31.1144 7.25429 30.7852 7.20703 30.4559 7.20703C28.1041 7.20703 25.7523 8.88472 25.3525 10.846ZM8.60762 0.401733L0 24.5747H12.6998V21.7392H4.20974L10.1833 4.08793H10.2304L17.1682 24.5747H20.5313L12.0648 0.401733H8.60762ZM82.7837 7.65599H85.7234V24.5747H82.7837V7.65599Z" fill="inherit"/>
<path d="M84.2652 4.06427C85.3823 4.06427 86.2878 3.15445 86.2878 2.03214C86.2878 0.909818 85.3823 0 84.2652 0C83.1482 0 82.2427 0.909818 82.2427 2.03214C82.2427 3.15445 83.1482 4.06427 84.2652 4.06427Z" fill="inherit"/>
<path d="M133.113 24.5037H131.725L140.638 0.732422H142.308L151.175 24.5037H149.811L147.012 17.0131H135.794L133.113 24.5037ZM142.92 6.07269C142.473 4.84395 141.767 2.85908 141.462 1.77212C141.038 2.95359 140.309 4.89121 139.886 6.02543L136.264 15.7608H146.541L142.92 6.07269ZM164.133 3.78063V13.6341H173.775V14.792H164.133V24.5037H162.981V14.792H153.385V13.6341H162.981V3.78063H164.133ZM177.397 24.5037H176.01L184.9 0.732422H186.569L195.436 24.5037H194.072L191.296 17.0131H180.078L177.397 24.5037ZM187.204 6.07269C186.757 4.84395 186.052 2.85908 185.746 1.77212C185.323 2.95359 184.594 4.89121 184.17 6.02543L180.549 15.7608H190.826L187.204 6.07269ZM209.076 18.4309C209.499 19.8014 209.899 21.4082 210.111 22.2116H210.158C210.37 21.4082 210.793 19.9432 211.31 18.2891L214.626 7.86853H215.943L210.558 24.5037H209.546L206.254 13.3506C205.831 11.9801 205.478 10.5623 205.384 10.0897H205.337C205.243 10.5859 204.913 11.9328 204.514 13.3742L201.339 24.5037H200.163L194.683 7.86853H196.118L199.575 18.4545C200.022 19.7778 200.586 21.6681 200.798 22.4479H200.845C201.056 21.5973 201.433 19.9196 201.809 18.5254L204.843 7.86853H206.019L209.076 18.4309ZM216.696 12.4054C216.649 9.14452 219.236 7.46683 222.576 7.46683C224.339 7.46683 226.221 7.82127 227.35 9.19178C227.938 9.92429 228.314 10.9404 228.314 12.5472V21.3846C228.314 22.8496 228.549 23.653 229.96 23.653C230.336 23.653 230.713 23.6058 231.066 23.4876V24.5273C230.595 24.6691 230.101 24.74 229.607 24.74C228.008 24.74 227.138 24.0311 227.138 22.2589C227.138 22.0462 227.138 21.8099 227.185 21.5973H227.138C226.409 23.3458 224.739 24.929 221.47 24.929C217.919 24.929 216.179 22.7551 216.179 19.9668C216.179 17.1077 217.942 15.7608 221.541 15.1464L226.174 14.343C226.973 14.2012 227.138 14.0358 227.138 13.3742V12.8071C227.138 9.94792 225.75 8.60104 222.576 8.60104C219.189 8.60104 217.848 10.2787 217.848 13.1143L216.696 12.4054ZM227.138 15.0992C226.903 15.2646 226.127 15.4536 224.833 15.6663L222.317 16.1152C219.989 16.5406 217.519 17.0604 217.519 19.8959C217.519 22.377 219.212 23.8184 221.799 23.8184C225.28 23.8184 227.115 21.0538 227.115 18.1946L227.138 15.0992ZM240.12 8.81371C239.72 8.71919 239.297 8.67193 238.874 8.67193C235.746 8.67193 234.005 11.7438 234.005 14.5557V24.5273H232.712V7.86853H234.005V11.2948C234.499 9.4517 236.381 7.4432 238.779 7.4432C239.25 7.41957 239.697 7.46683 240.144 7.6086L240.12 8.81371ZM252.632 11.2475H252.679V0.732422H253.972V24.5037H252.679V21.0538H252.632C251.926 23.0387 249.998 24.929 246.917 24.929C242.425 24.929 239.885 21.5736 239.885 16.1152C239.885 10.7277 242.66 7.4432 246.917 7.4432C250.303 7.4432 251.879 9.33356 252.632 11.2475ZM247.034 8.55378C243.413 8.55378 241.296 11.3657 241.296 16.1861C241.296 21.1247 243.554 23.8184 247.105 23.8184C250.562 23.8184 252.773 21.1247 252.773 16.1625C252.773 11.2948 250.562 8.55378 247.034 8.55378ZM267.33 10.9876C266.131 9.4517 264.297 8.55378 262.345 8.57741C259.969 8.62467 258.135 9.688 258.135 11.7674C258.135 13.8468 259.428 14.4848 261.898 15.0992L263.873 15.5954C266.766 16.3043 269 17.2494 269 20.1086C269 23.1568 266.46 24.9763 262.815 24.9763C259.617 24.9763 257.288 23.3695 256.206 21.9281L257.1 20.9593C258.488 22.8024 260.651 23.8657 262.956 23.8184C266.131 23.7712 267.66 22.3061 267.66 20.2268C267.613 17.9819 265.99 17.3676 263.732 16.8241L261.333 16.2334C258.652 15.5954 256.818 14.5557 256.818 11.9092C256.818 9.07363 259.358 7.53771 262.533 7.51409C265.237 7.51409 267.025 8.62467 268.177 10.0424L267.33 10.9876Z" fill="inherit"/>
</g>
<defs>
<clipPath id="clip0_318_352">
<rect width="269" height="25" fill="inherit"/>
</clipPath>
</defs>
</svg>
