<svg width="14" height="14" viewBox="0 0 14 14" fill="inherit" xmlns="http://www.w3.org/2000/svg">
<g clip-path="url(#clip0_47_70)">
<path fill-rule="evenodd" clip-rule="evenodd" d="M1.12853 4.12853C1.16917 4.08779 1.21745 4.05546 1.2706 4.03341C1.32375 4.01135 1.38074 4 1.43828 4C1.49583 4 1.55281 4.01135 1.60596 4.03341C1.65911 4.05546 1.70739 4.08779 1.74803 4.12853L6.68828 9.06966L11.6285 4.12853C11.6692 4.08785 11.7175 4.05559 11.7706 4.03357C11.8238 4.01156 11.8808 4.00023 11.9383 4.00023C11.9958 4.00023 12.0528 4.01156 12.1059 4.03357C12.1591 4.05559 12.2074 4.08785 12.248 4.12853C12.2887 4.16921 12.321 4.2175 12.343 4.27065C12.365 4.32379 12.3763 4.38076 12.3763 4.43828C12.3763 4.49581 12.365 4.55277 12.343 4.60592C12.321 4.65906 12.2887 4.70736 12.248 4.74803L6.99803 9.99803C6.95739 10.0388 6.90911 10.0711 6.85596 10.0932C6.80281 10.1152 6.74583 10.1266 6.68828 10.1266C6.63074 10.1266 6.57376 10.1152 6.5206 10.0932C6.46745 10.0711 6.41917 10.0388 6.37853 9.99803L1.12853 4.74803C1.08779 4.70739 1.05546 4.65911 1.03341 4.60596C1.01135 4.55281 1 4.49583 1 4.43828C1 4.38074 1.01135 4.32375 1.03341 4.2706C1.05546 4.21745 1.08779 4.16917 1.12853 4.12853V4.12853Z" fill="inherit"/>
</g>
<defs>
<clipPath id="clip0_47_70">
<rect width="14" height="14" fill="inherit"/>
</clipPath>
</defs>
</svg>
