<svg width="20" height="20" viewBox="0 0 20 20" fill="inherit" xmlns="http://www.w3.org/2000/svg">
<g clip-path="url(#clip0_318_289)">
<path d="M14.0416 0H5.95743C4.37781 0.00185632 2.86345 0.630245 1.74659 1.74729C0.629725 2.86434 0.00159073 4.37882 0 5.95843L0 14.0426C0.00185632 15.6222 0.630245 17.1366 1.74729 18.2534C2.86434 19.3703 4.37882 19.9984 5.95843 20H14.0426C15.6222 19.9981 17.1366 19.3698 18.2534 18.2527C19.3703 17.1357 19.9984 15.6212 20 14.0416V5.95743C19.9981 4.37781 19.3698 2.86345 18.2527 1.74659C17.1357 0.629725 15.6212 0.00159073 14.0416 0V0ZM17.9885 14.0416C17.9885 14.5599 17.8864 15.0731 17.688 15.552C17.4897 16.0308 17.199 16.466 16.8325 16.8325C16.466 17.199 16.0308 17.4897 15.552 17.688C15.0731 17.8864 14.5599 17.9885 14.0416 17.9885H5.95743C4.91081 17.9882 3.90716 17.5723 3.16719 16.8321C2.42722 16.0919 2.01152 15.0882 2.01152 14.0416V5.95743C2.01179 4.91081 2.42774 3.90716 3.1679 3.16719C3.90806 2.42722 4.91182 2.01152 5.95843 2.01152H14.0426C15.0892 2.01179 16.0928 2.42774 16.8328 3.1679C17.5728 3.90806 17.9885 4.91182 17.9885 5.95843V14.0426V14.0416Z" fill="inherit"/>
<path d="M9.99917 4.82764C8.6282 4.82976 7.31401 5.37538 6.34468 6.3449C5.37535 7.31442 4.82998 8.62872 4.82812 9.99969C4.82972 11.371 5.3751 12.6857 6.34468 13.6555C7.31425 14.6252 8.62886 15.1709 10.0002 15.1727C11.3717 15.1711 12.6865 14.6256 13.6563 13.6558C14.6261 12.686 15.1716 11.3712 15.1732 9.99969C15.1711 8.62837 14.6252 7.31387 13.6553 6.34449C12.6853 5.3751 11.3705 4.82996 9.99917 4.82864V4.82764ZM9.99917 13.1612C9.16095 13.1612 8.35706 12.8282 7.76434 12.2355C7.17163 11.6428 6.83864 10.8389 6.83864 10.0007C6.83864 9.16246 7.17163 8.35857 7.76434 7.76586C8.35706 7.17314 9.16095 6.84016 9.99917 6.84016C10.8374 6.84016 11.6413 7.17314 12.234 7.76586C12.8267 8.35857 13.1597 9.16246 13.1597 10.0007C13.1597 10.8389 12.8267 11.6428 12.234 12.2355C11.6413 12.8282 10.8374 13.1612 9.99917 13.1612V13.1612Z" fill="inherit"/>
<path d="M15.1825 6.10578C15.8669 6.10578 16.4217 5.55098 16.4217 4.86661C16.4217 4.18224 15.8669 3.62744 15.1825 3.62744C14.4982 3.62744 13.9434 4.18224 13.9434 4.86661C13.9434 5.55098 14.4982 6.10578 15.1825 6.10578Z" fill="inherit"/>
</g>
<defs>
<clipPath id="clip0_318_289">
<rect width="20" height="20" fill="inherit"/>
</clipPath>
</defs>
</svg>
