<svg width="19" height="19" viewBox="0 0 19 19" fill="inherit" xmlns="http://www.w3.org/2000/svg">
<path d="M8.11006 10.937C7.77256 12.5881 7.36227 14.172 6.13934 15C5.76346 12.5041 6.69389 10.6275 7.12536 8.63677C6.38948 7.48004 7.21404 5.14977 8.76653 5.72454C10.679 6.4301 7.11212 10.0275 9.5077 10.4763C12.0065 10.9466 13.0283 6.4277 11.4771 4.95659C9.2377 2.83511 4.95611 4.90859 5.48287 7.94681C5.61125 8.69077 6.43316 8.91515 5.8111 9.93989C4.37773 9.64351 3.95023 8.58757 4.00449 7.18006C4.09317 4.87619 6.22139 3.26468 8.35756 3.0403C11.0575 2.75831 13.5908 3.96664 13.9415 6.33771C14.3346 9.01355 12.7225 11.9126 9.83461 11.7038C9.05373 11.6474 8.72285 11.2838 8.11006 10.9358V10.937Z" fill="inherit"/>
<path d="M3.6 1.8C3.12261 1.8 2.66477 1.98964 2.32721 2.32721C1.98964 2.66477 1.8 3.12261 1.8 3.6V14.4C1.8 14.8774 1.98964 15.3352 2.32721 15.6728C2.66477 16.0104 3.12261 16.2 3.6 16.2H14.4C14.8774 16.2 15.3352 16.0104 15.6728 15.6728C16.0104 15.3352 16.2 14.8774 16.2 14.4V3.6C16.2 3.12261 16.0104 2.66477 15.6728 2.32721C15.3352 1.98964 14.8774 1.8 14.4 1.8H3.6ZM3.6 0H14.4C15.3548 0 16.2705 0.379285 16.9456 1.05442C17.6207 1.72955 18 2.64522 18 3.6V14.4C18 15.3548 17.6207 16.2705 16.9456 16.9456C16.2705 17.6207 15.3548 18 14.4 18H3.6C2.64522 18 1.72955 17.6207 1.05442 16.9456C0.379285 16.2705 0 15.3548 0 14.4V3.6C0 2.64522 0.379285 1.72955 1.05442 1.05442C1.72955 0.379285 2.64522 0 3.6 0Z" fill="inherit"/>
</svg>
