<svg width="20" height="20" viewBox="0 0 20 20" fill="inherit" xmlns="http://www.w3.org/2000/svg">
<g clip-path="url(#clip0_801_3)">
<path d="M9.01107 12.1522C8.63607 13.9868 8.1802 15.7467 6.82138 16.6667C6.40374 13.8935 7.43755 11.8083 7.91696 9.59642C7.09932 8.31117 8.0155 5.72198 9.74048 6.36061C11.8655 7.14457 7.90225 11.1417 10.564 11.6403C13.3405 12.1629 14.4758 7.1419 12.7522 5.50733C10.264 3.15013 5.50668 5.454 6.09197 8.8298C6.23462 9.65642 7.14785 9.90573 6.45667 11.0443C4.86404 10.715 4.38904 9.54175 4.44933 7.97785C4.54786 5.418 6.91255 3.62743 9.28607 3.37812C12.286 3.0648 15.1008 4.40739 15.4905 7.04191C15.9272 10.0151 14.136 13.2362 10.9272 13.0042C10.0596 12.9416 9.69195 12.5376 9.01107 12.1509V12.1522Z" fill="inherit"/>
<path d="M4 2C3.46957 2 2.96086 2.21071 2.58579 2.58579C2.21071 2.96086 2 3.46957 2 4V16C2 16.5304 2.21071 17.0391 2.58579 17.4142C2.96086 17.7893 3.46957 18 4 18H16C16.5304 18 17.0391 17.7893 17.4142 17.4142C17.7893 17.0391 18 16.5304 18 16V4C18 3.46957 17.7893 2.96086 17.4142 2.58579C17.0391 2.21071 16.5304 2 16 2H4ZM4 0H16C17.0609 0 18.0783 0.421428 18.8284 1.17158C19.5786 1.92172 20 2.93913 20 4V16C20 17.0609 19.5786 18.0783 18.8284 18.8284C18.0783 19.5786 17.0609 20 16 20H4C2.93913 20 1.92172 19.5786 1.17158 18.8284C0.421428 18.0783 0 17.0609 0 16V4C0 2.93913 0.421428 1.92172 1.17158 1.17158C1.92172 0.421428 2.93913 0 4 0Z" fill="inherit"/>
</g>
<defs>
<clipPath id="clip0_801_3">
<rect width="20" height="20" fill="inherit"/>
</clipPath>
</defs>
</svg>
