<svg width="20" height="20" viewBox="0 0 20 20" fill="inherit" xmlns="http://www.w3.org/2000/svg">
<path d="M3.90201 0.375C2.96771 0.378641 2.07272 0.751405 1.41206 1.41206C0.751405 2.07272 0.378641 2.96771 0.375 3.90201V15.8569C0.378641 16.7912 0.751405 17.6862 1.41206 18.3468C2.07272 19.0075 2.96771 19.3802 3.90201 19.3839H15.8569C16.7912 19.3802 17.6862 19.0075 18.3468 18.3468C19.0075 17.6862 19.3802 16.7912 19.3839 15.8569V3.90201C19.3802 2.96771 19.0075 2.07272 18.3468 1.41206C17.6862 0.751405 16.7912 0.378641 15.8569 0.375H3.90201ZM3.90201 2.10308H15.8569C16.8592 2.10308 17.6558 2.89973 17.6558 3.90201V15.8569C17.6558 16.8592 16.8592 17.6558 15.8569 17.6558H3.90201C3.66536 17.6573 3.43076 17.6118 3.21183 17.5219C2.9929 17.432 2.79399 17.2996 2.62665 17.1322C2.45931 16.9649 2.32685 16.766 2.23698 16.5471C2.1471 16.3281 2.10159 16.0935 2.10308 15.8569V3.90201C2.10308 2.89973 2.89973 2.10308 3.90201 2.10308ZM9.63665 6.62201C9.00158 6.61596 8.46155 6.62201 8.15828 6.77063C7.95523 6.86913 7.80056 7.09119 7.89474 7.10155C8.01312 7.11883 8.27924 7.17586 8.42181 7.36854C8.60326 7.61479 8.59721 8.1721 8.59721 8.1721C8.59721 8.1721 8.6983 9.70404 8.35009 9.89673C8.11075 10.0281 7.78328 9.76107 7.07477 8.54277C6.7136 7.91548 6.44056 7.22338 6.44056 7.22338C6.44056 7.22338 6.38872 7.09464 6.2954 7.02725C6.18049 6.94344 6.0215 6.91579 6.0215 6.91579L4.33058 6.92615C4.33058 6.92615 4.07741 6.93652 3.98669 7.04453C3.90201 7.14562 3.97978 7.34435 3.97978 7.34435C3.97978 7.34435 5.30262 10.4393 6.80087 11.9989C8.17469 13.4306 9.73429 13.3356 9.73429 13.3356H10.4428C10.4428 13.3356 10.6554 13.3123 10.7634 13.1974C10.8653 13.0894 10.8619 12.8863 10.8619 12.8863C10.8619 12.8863 10.848 11.9385 11.287 11.7968C11.7224 11.6611 12.2754 12.7144 12.8664 13.1196C13.3157 13.4263 13.6562 13.3589 13.6562 13.3589L15.2365 13.3356C15.2365 13.3356 16.0599 13.2846 15.6685 12.6331C15.6383 12.583 15.4421 12.1545 14.4977 11.2766C13.505 10.359 13.6372 10.5076 14.8313 8.91777C15.5571 7.94918 15.8474 7.35817 15.7558 7.10155C15.6694 6.86222 15.1354 6.92615 15.1354 6.92615L13.3563 6.93652C13.3563 6.93652 13.225 6.91924 13.1274 6.97713C13.0602 7.02699 13.0067 7.09296 12.9718 7.16895C12.9718 7.16895 12.6884 7.91807 12.3134 8.5566C11.5237 9.89932 11.2032 9.97362 11.0753 9.88981C10.7746 9.69368 10.8489 9.10613 10.8489 8.69139C10.8489 7.38496 11.0476 6.84493 10.4644 6.7041C10.2717 6.65657 10.13 6.62633 9.63751 6.62201H9.63665Z" fill="inherit"/>
</svg>
