<svg width="19" height="19" viewBox="0 0 19 19" fill="inherit" xmlns="http://www.w3.org/2000/svg">
<path d="M7.69501 5.937V7.314H6.68701V8.997H7.69501V14H9.76701V8.997H11.157C11.157 8.997 11.288 8.19 11.351 7.307H9.77501V6.157C9.77501 5.984 10.001 5.753 10.225 5.753H11.353V4H9.81801C7.64401 4 7.69501 5.685 7.69501 5.937Z" fill="inherit"/>
<path d="M3.666 1.833C3.17986 1.833 2.71363 2.02612 2.36987 2.36987C2.02612 2.71363 1.833 3.17986 1.833 3.666V14.664C1.833 15.1501 2.02612 15.6164 2.36987 15.9601C2.71363 16.3039 3.17986 16.497 3.666 16.497H14.664C15.1501 16.497 15.6164 16.3039 15.9601 15.9601C16.3039 15.6164 16.497 15.1501 16.497 14.664V3.666C16.497 3.17986 16.3039 2.71363 15.9601 2.36987C15.6164 2.02612 15.1501 1.833 14.664 1.833H3.666ZM3.666 0H14.664C15.6363 0 16.5687 0.386238 17.2563 1.07375C17.9438 1.76125 18.33 2.69372 18.33 3.666V14.664C18.33 15.6363 17.9438 16.5687 17.2563 17.2563C16.5687 17.9438 15.6363 18.33 14.664 18.33H3.666C2.69372 18.33 1.76125 17.9438 1.07375 17.2563C0.386238 16.5687 0 15.6363 0 14.664V3.666C0 2.69372 0.386238 1.76125 1.07375 1.07375C1.76125 0.386238 2.69372 0 3.666 0Z" fill="inherit"/>
</svg>
