<svg width="20" height="20" viewBox="0 0 20 20" fill="inherit" xmlns="http://www.w3.org/2000/svg">
<path d="M13.6374 1H6.36168C4.94003 1.00167 3.5771 1.56722 2.57193 2.57256C1.56675 3.57791 1.00143 4.94093 1 6.36258L1 13.6383C1.00167 15.06 1.56722 16.4229 2.57256 17.4281C3.57791 18.4332 4.94093 18.9986 6.36258 19H13.6383C15.06 18.9983 16.4229 18.4328 17.4281 17.4274C18.4332 16.4221 18.9986 15.0591 19 13.6374V6.36168C18.9983 4.94003 18.4328 3.5771 17.4274 2.57193C16.4221 1.56675 15.0591 1.00143 13.6374 1V1ZM17.1896 13.6374C17.1896 14.1039 17.0978 14.5658 16.9192 14.9968C16.7407 15.4278 16.4791 15.8194 16.1492 16.1492C15.8194 16.4791 15.4278 16.7407 14.9968 16.9192C14.5658 17.0978 14.1039 17.1896 13.6374 17.1896H6.36168C5.41973 17.1894 4.51644 16.815 3.85047 16.1489C3.18449 15.4827 2.81037 14.5794 2.81037 13.6374V6.36168C2.81061 5.41973 3.18496 4.51644 3.85111 3.85047C4.51725 3.18449 5.42063 2.81037 6.36258 2.81037H13.6383C14.5803 2.81061 15.4836 3.18496 16.1495 3.85111C16.8155 4.51725 17.1896 5.42063 17.1896 6.36258V13.6383V13.6374Z" fill="inherit"/>
<path d="M9.99965 5.34488C8.76577 5.34679 7.583 5.83785 6.7106 6.71041C5.8382 7.58298 5.34737 8.76585 5.3457 9.99973C5.34713 11.2339 5.83798 12.4172 6.7106 13.2899C7.58322 14.1627 8.76636 14.6538 10.0005 14.6555C11.2349 14.654 12.4183 14.1631 13.2911 13.2903C14.1639 12.4174 14.6549 11.2341 14.6563 9.99973C14.6544 8.76554 14.1631 7.58249 13.2901 6.71004C12.4172 5.83759 11.2338 5.34697 9.99965 5.34578V5.34488ZM9.99965 12.8451C9.24525 12.8451 8.52174 12.5454 7.9883 12.012C7.45485 11.4785 7.15517 10.755 7.15517 10.0006C7.15517 9.24622 7.45485 8.52272 7.9883 7.98928C8.52174 7.45583 9.24525 7.15615 9.99965 7.15615C10.7541 7.15615 11.4776 7.45583 12.011 7.98928C12.5444 8.52272 12.8441 9.24622 12.8441 10.0006C12.8441 10.755 12.5444 11.4785 12.011 12.012C11.4776 12.5454 10.7541 12.8451 9.99965 12.8451Z" fill="inherit"/>
<path d="M14.6646 6.49521C15.2805 6.49521 15.7798 5.9959 15.7798 5.37996C15.7798 4.76402 15.2805 4.26471 14.6646 4.26471C14.0486 4.26471 13.5493 4.76402 13.5493 5.37996C13.5493 5.9959 14.0486 6.49521 14.6646 6.49521Z" fill="inherit"/>
</svg>
