<svg width="21" height="21" viewBox="0 0 21 21" fill="inherit" xmlns="http://www.w3.org/2000/svg">
<path d="M15.2916 11.5831V15.1261H13.2379V11.8198C13.2379 10.9899 12.9409 10.4236 12.1972 10.4236C11.6299 10.4236 11.2916 10.805 11.143 11.1749C11.0894 11.3071 11.075 11.4911 11.075 11.6751V15.1261H9.02031C9.02031 15.1261 9.04811 9.52751 9.02031 8.94772H11.075V9.82268L11.0616 9.8428H11.075V9.82364C11.3481 9.40197 11.8349 8.80205 12.9265 8.80205C14.2777 8.80205 15.2916 9.68564 15.2916 11.5831ZM6.87077 5.96826C6.16831 5.96826 5.70831 6.43018 5.70831 7.03585C5.70831 7.63001 6.1549 8.10439 6.84394 8.10439H6.85735C7.57419 8.10439 8.01981 7.62905 8.01981 7.03585C8.0064 6.43018 7.57419 5.96826 6.87077 5.96826ZM5.83002 15.1261H7.88469V8.94772H5.83002V15.1261Z" fill="inherit"/>
<path d="M4.71669 2.8165C4.21278 2.8165 3.7295 3.01668 3.37318 3.373C3.01687 3.72932 2.81669 4.21259 2.81669 4.7165V16.1165C2.81669 16.6204 3.01687 17.1037 3.37318 17.46C3.7295 17.8163 4.21278 18.0165 4.71669 18.0165H16.1167C16.6206 18.0165 17.1039 17.8163 17.4602 17.46C17.8165 17.1037 18.0167 16.6204 18.0167 16.1165V4.7165C18.0167 4.21259 17.8165 3.72932 17.4602 3.373C17.1039 3.01668 16.6206 2.8165 16.1167 2.8165H4.71669ZM4.71669 0.916504H16.1167C17.1245 0.916504 18.0911 1.31686 18.8037 2.0295C19.5163 2.74214 19.9167 3.70868 19.9167 4.7165V16.1165C19.9167 17.1243 19.5163 18.0909 18.8037 18.8035C18.0911 19.5161 17.1245 19.9165 16.1167 19.9165H4.71669C3.70886 19.9165 2.74232 19.5161 2.02968 18.8035C1.31704 18.0909 0.916687 17.1243 0.916687 16.1165V4.7165C0.916687 3.70868 1.31704 2.74214 2.02968 2.0295C2.74232 1.31686 3.70886 0.916504 4.71669 0.916504Z" fill="inherit"/>
</svg>
