<svg width="89" height="89" viewBox="0 0 89 89" fill="inherit" xmlns="http://www.w3.org/2000/svg">
<path d="M31.0201 59.9191C31.0281 60.0161 31.0703 60.1072 31.1391 60.1761C31.208 60.245 31.2991 60.2871 31.3961 60.2952H33.2882C33.3853 60.2871 33.4764 60.245 33.5452 60.1761C33.6141 60.1072 33.6563 60.0161 33.6643 59.9191V46.0396H39.3524L53.0909 60.0131C53.18 60.1097 53.2895 60.1852 53.4115 60.234C53.5335 60.2828 53.6649 60.3037 53.796 60.2952H56.358C56.5461 60.2952 56.6401 60.2011 56.6401 60.0484C56.6401 59.8956 56.5461 59.8603 56.4521 59.7663L41.4796 44.6176L55.5824 32.4069C55.7352 32.2659 55.7822 32.1719 55.7822 32.0779C55.7842 32.0516 55.7803 32.0253 55.7708 32.0008C55.7613 31.9762 55.7464 31.9541 55.7272 31.9361C55.7081 31.9181 55.6851 31.9046 55.66 31.8965C55.635 31.8885 55.6084 31.8862 55.5824 31.8898H53.0909C52.9219 31.8837 52.7535 31.9141 52.5974 31.979C52.4412 32.0439 52.3009 32.1418 52.186 32.2659L38.9881 43.6891H33.6643V32.2659C33.6587 32.168 33.6173 32.0756 33.5479 32.0062C33.4786 31.9369 33.3862 31.8954 33.2882 31.8898H31.3961C31.2982 31.8954 31.2058 31.9369 31.1364 32.0062C31.0671 32.0756 31.0257 32.168 31.0201 32.2659V43.6891H26.4249C26.3459 43.6952 26.2724 43.7316 26.2198 43.7908C26.1671 43.85 26.1396 43.9273 26.1428 44.0065V45.7341C26.1396 45.8132 26.1671 45.8905 26.2198 45.9497C26.2724 46.0089 26.3459 46.0453 26.4249 46.0514H31.0201V59.9191Z" fill="inherit"/>
<path d="M62.1755 57.8271H60.7182C60.4391 57.8271 60.2129 58.0534 60.2129 58.3325V59.7898C60.2129 60.0689 60.4391 60.2951 60.7182 60.2951H62.1755C62.4546 60.2951 62.6809 60.0689 62.6809 59.7898V58.3325C62.6809 58.0534 62.4546 57.8271 62.1755 57.8271Z" fill="inherit"/>
<path d="M29.939 78.7579L33.8173 80.1212L34.828 79.1105C34.9572 78.9812 35.0043 78.9812 35.1688 79.04L36.7436 79.6041C36.8259 79.6041 36.8376 79.6981 36.8141 79.7451C36.7878 79.7983 36.752 79.8461 36.7083 79.8862L30.1858 86.2442L28.8108 85.7506L27.8353 76.6895C27.8286 76.631 27.8286 76.5718 27.8353 76.5133C27.8547 76.4959 27.8798 76.4863 27.9059 76.4863C27.9319 76.4863 27.957 76.4959 27.9764 76.5133L29.5864 77.0656C29.751 77.0656 29.7862 77.1479 29.8097 77.3359L29.939 78.7579ZM32.6773 81.2965L30.0448 80.3445L30.2328 82.0839C30.2611 82.6241 30.2611 83.1654 30.2328 83.7057H30.3151C30.6505 83.2953 31.0075 82.903 31.3845 82.5304L32.6773 81.2965Z" fill="inherit"/>
<path d="M20.0318 81.2965C19.9995 81.3254 19.9576 81.3414 19.9143 81.3414C19.8709 81.3414 19.8291 81.3254 19.7967 81.2965L16.7176 78.8638C15.1076 77.5828 14.6492 75.7964 15.7892 74.3509C16.1403 73.8974 16.631 73.5722 17.1855 73.4256C17.7399 73.279 18.3272 73.3192 18.8566 73.54V73.54C18.8361 73.2975 18.8361 73.0538 18.8566 72.8113L19.0093 70.2493C18.986 70.1848 18.986 70.1141 19.0093 70.0496C19.0093 70.0496 19.0916 69.9908 19.1621 70.0496L20.6312 71.2248C20.6645 71.2557 20.6896 71.2945 20.7039 71.3376C20.7183 71.3808 20.7216 71.4268 20.7134 71.4716L20.5136 74.5037L21.9357 75.6789L23.4752 73.728C23.4905 73.7124 23.5088 73.7 23.529 73.6915C23.5492 73.683 23.5709 73.6786 23.5927 73.6786C23.6146 73.6786 23.6363 73.683 23.6565 73.6915C23.6767 73.7 23.6949 73.7124 23.7103 73.728L24.956 74.7035C24.9716 74.7188 24.9841 74.7371 24.9925 74.7573C25.001 74.7774 25.0054 74.7991 25.0054 74.821C25.0054 74.8429 25.001 74.8646 24.9925 74.8847C24.9841 74.9049 24.9716 74.9232 24.956 74.9385L20.0318 81.2965ZM19.4207 78.9461L21.0895 76.8424L19.4794 75.5496C18.6568 74.8915 17.8106 74.8563 17.2935 75.5496C16.7764 76.243 16.988 77.0304 17.8224 77.6886L19.4207 78.9461Z" fill="inherit"/>
<path d="M8.91393 64.5258C8.99619 64.6433 8.98444 64.7373 8.85517 64.8548C8.48063 65.2264 8.25573 65.7226 8.22322 66.2492C8.19072 66.7757 8.35289 67.2959 8.67888 67.7107C9.09367 68.2894 9.71599 68.6857 10.4159 68.8166C11.1159 68.9475 11.8393 68.803 12.4353 68.4133C13.0312 68.0236 13.4536 67.4187 13.6143 66.725C13.775 66.0313 13.6615 65.3024 13.2975 64.6903C13.0703 64.2469 12.6914 63.8999 12.2298 63.7122C11.7683 63.5246 11.2547 63.5088 10.7825 63.6679C10.6063 63.7501 10.524 63.6679 10.43 63.5738L9.66608 62.3986C9.64511 62.3778 9.62847 62.3531 9.61711 62.3259C9.60576 62.2987 9.59991 62.2695 9.59991 62.24C9.59991 62.2104 9.60576 62.1812 9.61711 62.154C9.62847 62.1268 9.64511 62.1021 9.66608 62.0813C11.1821 61.0823 13.2858 61.7522 14.6608 63.8441C14.9749 64.3249 15.1912 64.8628 15.2974 65.4271C15.4036 65.9915 15.3975 66.5712 15.2797 67.1332C15.1618 67.6953 14.9344 68.2286 14.6105 68.7027C14.2865 69.1768 13.8723 69.5825 13.3916 69.8966C12.9108 70.2107 12.3729 70.427 11.8086 70.5331C11.2442 70.6393 10.6645 70.6333 10.1025 70.5155C9.54045 70.3976 9.00714 70.1702 8.53301 69.8462C8.05887 69.5223 7.65319 69.1081 7.33912 68.6273C5.88183 66.3826 6.4577 64.1732 7.85622 63.2565C7.93849 63.2565 8.04426 63.2565 8.13828 63.3505L8.91393 64.5258Z" fill="inherit"/>
<path d="M8.62033 48.6368C8.66378 48.6283 8.70883 48.6355 8.74752 48.657C8.78622 48.6785 8.81609 48.7129 8.83187 48.7543L9.19619 50.2938C9.20161 50.3385 9.1918 50.3837 9.16834 50.4221C9.14487 50.4605 9.10914 50.4898 9.06692 50.5054L6.14059 51.1988L7.31582 55.8997L10.2422 55.1946C10.2853 55.1898 10.3287 55.2 10.3651 55.2236C10.4015 55.2471 10.4287 55.2825 10.4419 55.3238L10.7828 56.8986C10.7906 56.9405 10.7831 56.9838 10.7614 57.0206C10.7398 57.0573 10.7057 57.085 10.6652 57.0984L2.73243 58.967C2.69035 58.9778 2.64575 58.9715 2.60832 58.9494C2.5709 58.9274 2.54369 58.8915 2.53264 58.8495L2.16831 57.31C2.15987 57.2665 2.16703 57.2215 2.18852 57.1828C2.21002 57.1441 2.24448 57.1142 2.28584 57.0984L5.70576 56.2875L4.53053 51.5866L1.11061 52.3975C1.06873 52.4054 1.02541 52.3978 0.988682 52.3762C0.951951 52.3546 0.92429 52.3204 0.910818 52.28L0.593505 50.7404C0.586203 50.697 0.595421 50.6524 0.619346 50.6154C0.643272 50.5784 0.680171 50.5518 0.722782 50.5406L8.62033 48.6368Z" fill="inherit"/>
<path d="M8.71429 42.5139C8.73693 42.5139 8.75933 42.5185 8.7801 42.5275C8.80086 42.5365 8.81955 42.5496 8.835 42.5662C8.85044 42.5827 8.8623 42.6023 8.86984 42.6236C8.87739 42.645 8.88044 42.6676 8.87883 42.6902V44.265C8.87338 44.3088 8.85275 44.3492 8.82053 44.3793C8.78831 44.4093 8.74655 44.4271 8.70254 44.4295L0.581695 44.171C0.560068 44.1695 0.538949 44.1638 0.519551 44.1541C0.500154 44.1444 0.48286 44.131 0.468663 44.1146C0.454466 44.0982 0.443645 44.0792 0.436824 44.0586C0.430002 44.038 0.427316 44.0163 0.428916 43.9947V42.4199C0.431901 42.3752 0.451783 42.3333 0.484525 42.3028C0.517266 42.2722 0.560413 42.2553 0.6052 42.2554L8.71429 42.5139Z" fill="inherit"/>
<path d="M2.45008 37.1196C2.4285 37.1657 2.3932 37.204 2.34902 37.2292C2.30484 37.2545 2.25394 37.2655 2.20328 37.2607L1.02805 36.9316C0.982912 36.9121 0.945026 36.8789 0.919727 36.8368C0.894428 36.7946 0.882989 36.7455 0.887023 36.6965L3.01419 28.9635C3.03617 28.9185 3.07197 28.8816 3.11637 28.8584C3.16077 28.8351 3.21144 28.8267 3.26099 28.8342L4.43622 29.1516C4.4823 29.1731 4.52058 29.2084 4.54583 29.2526C4.57108 29.2968 4.58205 29.3477 4.57725 29.3984L3.73108 32.3364L10.1831 34.111C10.2231 34.1286 10.2563 34.1588 10.2775 34.197C10.2988 34.2352 10.3069 34.2793 10.3006 34.3226L9.87754 35.8386C9.86175 35.88 9.83188 35.9144 9.79318 35.9359C9.75449 35.9574 9.70945 35.9646 9.66599 35.9561L3.26099 34.1815L2.45008 37.1196Z" fill="inherit"/>
<path d="M10.7826 24.6151L12.3927 25.6493L15.0722 21.4773C15.1053 21.4401 15.1493 21.4145 15.1978 21.4039C15.2464 21.3933 15.2971 21.3984 15.3425 21.4185L16.365 22.0766C16.3928 22.1162 16.4077 22.1634 16.4077 22.2118C16.4077 22.2601 16.3928 22.3073 16.365 22.3469L12.7335 27.988C12.7002 28.0147 12.6587 28.0293 12.616 28.0293C12.5733 28.0293 12.5318 28.0147 12.4985 27.988L5.67039 23.5927C5.6423 23.5623 5.62671 23.5224 5.62671 23.481C5.62671 23.4396 5.6423 23.3998 5.67039 23.3694L9.25484 17.834C9.29551 17.8091 9.34229 17.7959 9.38999 17.7959C9.4377 17.7959 9.48447 17.8091 9.52514 17.834L10.5476 18.4922C10.5847 18.5252 10.6104 18.5692 10.6209 18.6178C10.6315 18.6663 10.6264 18.717 10.6064 18.7625L7.97384 22.864L9.41937 23.8042L11.8286 20.0552C11.8617 20.0181 11.9056 19.9924 11.9542 19.9819C12.0028 19.9713 12.0534 19.9764 12.0989 19.9965L13.1214 20.6546C13.1492 20.6942 13.1641 20.7414 13.1641 20.7897C13.1641 20.8381 13.1492 20.8853 13.1214 20.9249L10.7826 24.6151Z" fill="inherit"/>
<path d="M20.7134 11.4759C20.6076 11.5699 20.5136 11.5699 20.3843 11.4759C19.9733 11.143 19.4544 10.9723 18.926 10.9961C18.3976 11.0199 17.8962 11.2366 17.5168 11.6052C17.2399 11.8324 17.0121 12.1134 16.8472 12.4313C16.6822 12.7492 16.5836 13.0973 16.5572 13.4545C16.5308 13.8116 16.5773 14.1704 16.6937 14.5091C16.8102 14.8478 16.9942 15.1593 17.2347 15.4247C17.4467 15.7136 17.7157 15.9559 18.0251 16.1368C18.3345 16.3176 18.6777 16.4331 19.0334 16.476C19.3892 16.519 19.75 16.4885 20.0935 16.3865C20.4371 16.2845 20.756 16.1132 21.0307 15.883C21.4825 15.6065 21.8133 15.1697 21.9571 14.6599C22.1009 14.1501 22.047 13.6048 21.8064 13.133C21.7123 12.9684 21.7241 12.8862 21.8064 12.7687L22.8993 11.8755C22.9201 11.8545 22.9448 11.8379 22.972 11.8265C22.9993 11.8152 23.0285 11.8093 23.058 11.8093C23.0875 11.8093 23.1167 11.8152 23.1439 11.8265C23.1712 11.8379 23.1959 11.8545 23.2166 11.8755C24.3919 13.2858 23.9453 15.4012 22.0414 17.0347C21.6006 17.4165 21.0879 17.7062 20.5334 17.8867C19.979 18.0673 19.394 18.1352 18.8129 18.0863C18.2319 18.0374 17.6665 17.8728 17.15 17.6021C16.6335 17.3314 16.1764 16.9601 15.8056 16.5101C15.4347 16.0601 15.1577 15.5404 14.9907 14.9817C14.8237 14.423 14.7702 13.8365 14.8333 13.2568C14.8964 12.6772 15.0748 12.1159 15.358 11.6062C15.6413 11.0965 16.0236 10.6486 16.4826 10.2889C18.551 8.58483 20.8192 8.91389 21.8886 10.2066C21.9041 10.2298 21.9149 10.2557 21.9203 10.283C21.9257 10.3103 21.9257 10.3385 21.9202 10.3657C21.9148 10.393 21.904 10.419 21.8885 10.4421C21.873 10.4652 21.853 10.485 21.8299 10.5005L20.7134 11.4759Z" fill="inherit"/>
<path d="M25.05 6.61056C25.0013 6.6229 24.9499 6.61929 24.9033 6.60025C24.8568 6.58121 24.8176 6.54776 24.7915 6.50479L24.3449 5.32956C24.3371 5.2797 24.3441 5.22865 24.365 5.1827C24.3859 5.13676 24.4197 5.09793 24.4624 5.07101L31.9369 2.16819C31.9856 2.15763 32.0364 2.16209 32.0826 2.18097C32.1287 2.19985 32.1681 2.23227 32.1954 2.27396L32.642 3.44919C32.6526 3.49793 32.6481 3.54872 32.6292 3.59487C32.6104 3.64102 32.5779 3.68038 32.5362 3.70774L29.7039 4.88297L32.1602 11.0882C32.176 11.1304 32.1751 11.177 32.1576 11.2185C32.1401 11.2601 32.1074 11.2933 32.0662 11.3115L30.5971 11.8873C30.5566 11.9027 30.5116 11.9014 30.472 11.8838C30.4324 11.8662 30.4013 11.8337 30.3856 11.7933L27.9176 5.58811L25.05 6.61056Z" fill="inherit"/>
<path d="M44.4648 0.663857C44.4668 0.61848 44.4841 0.575129 44.514 0.540947C44.544 0.506765 44.5846 0.483793 44.6293 0.47582L46.2041 0.393555C46.2481 0.395972 46.2899 0.413772 46.3221 0.443844C46.3543 0.473917 46.375 0.51435 46.3804 0.558086L46.6037 4.80067C46.6769 5.36963 46.6241 5.94772 46.449 6.494C46.274 7.04028 45.981 7.54141 45.5908 7.96189C45.2006 8.38237 44.7227 8.71193 44.191 8.92723C43.6593 9.14253 43.0867 9.23831 42.5139 9.20778C41.9472 9.29755 41.3678 9.26161 40.8165 9.10253C40.2653 8.94344 39.7557 8.6651 39.324 8.28721C38.8923 7.90932 38.549 7.44112 38.3183 6.91579C38.0876 6.39046 37.9753 5.82083 37.9893 5.24726L37.813 1.00468C37.8154 0.960668 37.8332 0.918908 37.8633 0.886688C37.8933 0.854467 37.9338 0.833834 37.9775 0.828391L39.5523 0.746123C39.5963 0.74854 39.6381 0.76634 39.6703 0.796413C39.7025 0.826485 39.7232 0.86692 39.7286 0.910657L39.9519 5.12973C40.0342 6.88083 40.9391 7.67999 42.4787 7.59772C44.0182 7.51545 44.8291 6.63403 44.7351 4.88294L44.4648 0.663857Z" fill="inherit"/>
<path d="M52.9735 1.38081C52.987 1.34038 53.0146 1.3062 53.0514 1.28459C53.0881 1.26299 53.1314 1.25542 53.1733 1.26328L56.9458 2.33274C58.9319 2.89686 60.0366 4.36589 59.5313 6.15225C59.3826 6.70676 59.0535 7.19601 58.596 7.54286C58.1385 7.88971 57.5786 8.07442 57.0045 8.06787V8.06787C57.1125 8.281 57.2067 8.50083 57.2866 8.726L58.0857 11.0765C58.1057 11.1416 58.1057 11.2111 58.0857 11.2763C58.0857 11.335 58.0857 11.3703 57.9565 11.3468L56.1466 10.8297C56.103 10.8135 56.0642 10.7868 56.0334 10.7519C56.0026 10.717 55.981 10.6751 55.9703 10.6299L54.9949 7.75056L53.2438 7.24521L52.5739 9.59567C52.5581 9.63703 52.5282 9.67149 52.4896 9.69299C52.4509 9.71448 52.4058 9.72164 52.3624 9.7132L50.8463 9.27836C50.805 9.26257 50.7705 9.2327 50.749 9.19401C50.7275 9.15531 50.7204 9.11027 50.7288 9.06682L52.9735 1.38081ZM54.419 3.28468L53.6904 5.87019L55.653 6.42255C56.6755 6.71636 57.4629 6.42255 57.6862 5.62339C57.9095 4.82424 57.4041 4.13085 56.3934 3.84879L54.419 3.28468Z" fill="inherit"/>
<path d="M67.0408 15.1782L63.6444 12.8277L62.4692 13.5446C62.3047 13.6386 62.2577 13.6269 62.1284 13.5446L60.7416 12.5927C60.6711 12.5927 60.6711 12.4752 60.7416 12.4517C60.7809 12.404 60.8287 12.3642 60.8826 12.3341L68.7919 7.83301L69.9672 8.66742L68.6039 17.6697C68.6173 17.7237 68.6173 17.7802 68.6039 17.8342C68.6039 17.8654 68.5915 17.8953 68.5695 17.9173C68.5474 17.9394 68.5175 17.9517 68.4864 17.9517C68.4552 17.9517 68.4253 17.9394 68.4033 17.9173C68.3812 17.8953 68.3689 17.8654 68.3689 17.8342L66.9938 16.8823C66.8528 16.7883 66.8293 16.753 66.8528 16.565L67.0408 15.1782ZM65.0547 11.9581L67.4052 13.5329L67.652 11.817C67.7488 11.2857 67.8743 10.76 68.028 10.2422H67.9575C67.5238 10.5682 67.0726 10.8703 66.606 11.1472L65.0547 11.9581Z" fill="inherit"/>
<path d="M73.0698 20.866L75.6553 24.1449C75.6831 24.1844 75.6981 24.2316 75.6981 24.28C75.6981 24.3284 75.6831 24.3756 75.6553 24.4152L74.7034 25.1673C74.6627 25.1978 74.6132 25.2143 74.5623 25.2143C74.5115 25.2143 74.462 25.1978 74.4213 25.1673L70.7546 20.4664C70.7257 20.4341 70.7097 20.3922 70.7097 20.3489C70.7097 20.3055 70.7257 20.2637 70.7546 20.2313L77.1244 15.2014C77.1595 15.1737 77.203 15.1587 77.2478 15.1587C77.2925 15.1587 77.336 15.1737 77.3712 15.2014L78.3466 16.4471C78.3733 16.4805 78.3878 16.5219 78.3878 16.5646C78.3878 16.6073 78.3733 16.6488 78.3466 16.6821L73.0698 20.866Z" fill="inherit"/>
<path d="M78.4523 33.7351C78.4451 33.7055 78.4496 33.6743 78.465 33.648C78.4803 33.6217 78.5053 33.6024 78.5346 33.5941L86.5732 31.796C86.6026 31.7914 86.6326 31.7971 86.6583 31.812C86.684 31.827 86.7038 31.8504 86.7142 31.8783L87.5721 35.7565C87.9717 37.4959 87.2666 38.6241 86.0561 38.8944C85.713 38.9969 85.3479 39.0005 85.0028 38.9049C84.6578 38.8092 84.3466 38.6182 84.1052 38.3538V38.3538C84.0382 38.8022 83.8319 39.2182 83.5156 39.5429C83.1992 39.8677 82.7888 40.0848 82.3424 40.1636C80.8381 40.4927 79.7568 39.5643 79.3338 37.6839L78.4523 33.7351ZM80.0154 37.4959C80.3562 39.0472 81.0966 39.623 82.1661 39.3762C83.2355 39.1294 83.6704 38.342 83.3413 36.9317L82.5774 33.5001L79.2868 34.2875L80.0154 37.4959ZM86.1736 32.7009L83.2825 33.3473L84.0582 36.873C84.3285 38.0482 85.0571 38.389 85.8916 38.201C86.726 38.013 87.1961 37.3196 86.8787 35.9093L86.1736 32.7009Z" fill="inherit"/>
<path d="M87.7014 52.7502C87.7305 52.7559 87.7563 52.7724 87.7738 52.7964C87.7912 52.8204 87.7989 52.8501 87.7954 52.8795V53.4319C87.7879 53.461 87.7714 53.4869 87.7481 53.5059C87.7249 53.525 87.6961 53.5361 87.6661 53.5376L83.2238 53.091C82.6708 53.0865 82.1258 52.9585 81.6286 52.7165C81.1314 52.4744 80.6945 52.1243 80.3499 51.6919C80.0053 51.2594 79.7616 50.7554 79.6366 50.2167C79.5116 49.678 79.5085 49.1182 79.6276 48.5782C79.6148 48.0165 79.7295 47.4593 79.9632 46.9485C80.197 46.4376 80.5435 45.9865 80.9769 45.6289C81.4102 45.2714 81.919 45.0169 82.4649 44.8844C83.0109 44.752 83.5797 44.7452 84.1287 44.8644L88.5241 45.358C88.552 45.3659 88.5764 45.3829 88.5934 45.4064C88.6105 45.4298 88.6192 45.4583 88.6181 45.4873V46.0397C88.6106 46.0688 88.594 46.0947 88.5708 46.1137C88.5475 46.1328 88.5188 46.1439 88.4888 46.1454L84.1052 45.6518C83.6634 45.543 83.2027 45.5362 82.7579 45.6319C82.3131 45.7276 81.896 45.9233 81.5381 46.2042C81.1802 46.485 80.891 46.8437 80.6923 47.253C80.4936 47.6623 80.3907 48.1115 80.3915 48.5664C80.2866 49.0089 80.285 49.4696 80.3868 49.9128C80.4887 50.3559 80.6912 50.7697 80.9788 51.122C81.2663 51.4743 81.6311 51.7557 82.0448 51.9443C82.4586 52.1329 82.9103 52.2237 83.3648 52.2096L87.7014 52.7502Z" fill="inherit"/>
<path d="M85.4804 60.5419C85.4966 60.564 85.5054 60.5908 85.5054 60.6183C85.5054 60.6457 85.4966 60.6725 85.4804 60.6947L83.9291 63.9383C83.0594 65.7599 81.5786 66.5238 80.0391 65.8069C79.447 65.5193 78.9898 65.0129 78.7639 64.3945C78.5381 63.7762 78.5613 63.0943 78.8286 62.4928V62.4928C78.8286 62.4928 78.4995 62.5985 78.0529 62.7043L75.1501 63.3624C75.0443 63.3624 74.9973 63.3624 74.9738 63.3624C74.9663 63.3558 74.9603 63.3477 74.9562 63.3386C74.9521 63.3295 74.95 63.3196 74.95 63.3096C74.95 63.2996 74.9521 63.2897 74.9562 63.2805C74.9603 63.2714 74.9663 63.2633 74.9738 63.2567L75.2794 62.6338C75.2794 62.5398 75.2794 62.528 75.4439 62.5045L79.1929 61.6466L80.4151 58.9671L77.7004 57.6861C77.6857 57.6633 77.6779 57.6368 77.6779 57.6097C77.6779 57.5826 77.6857 57.5561 77.7004 57.5333L77.9472 57.0162C77.9693 57 77.9961 56.9912 78.0235 56.9912C78.051 56.9912 78.0778 57 78.0999 57.0162L85.4804 60.5419ZM84.6107 61.0002L81.085 59.3079L79.8158 61.9052C79.0989 63.4212 79.3339 64.5729 80.4386 65.1018C81.5434 65.6306 82.7068 64.996 83.365 63.6092L84.6107 61.0002Z" fill="inherit"/>
<path d="M74.8914 69.9557L72.4704 67.6992L68.5804 71.8948C68.5671 71.9098 68.5509 71.9218 68.5326 71.9301C68.5144 71.9383 68.4946 71.9425 68.4746 71.9425C68.4546 71.9425 68.4348 71.9383 68.4166 71.9301C68.3983 71.9218 68.3821 71.9098 68.3688 71.8948L68.028 71.5775C68.008 71.5525 67.9971 71.5214 67.9971 71.4893C67.9971 71.4573 68.008 71.4262 68.028 71.4012L72.3881 66.7003C72.4103 66.684 72.437 66.6753 72.4645 66.6753C72.492 66.6753 72.5187 66.684 72.5409 66.7003L78.5698 72.3179C78.5861 72.34 78.5948 72.3668 78.5948 72.3943C78.5948 72.4217 78.5861 72.4485 78.5698 72.4707L74.3155 77.0423C74.2879 77.0615 74.2551 77.0718 74.2215 77.0718C74.1879 77.0718 74.155 77.0615 74.1275 77.0423L73.7984 76.7368C73.7806 76.7086 73.7712 76.676 73.7712 76.6427C73.7712 76.6095 73.7806 76.5769 73.7984 76.5487L77.5944 72.4824L75.4202 70.4375L71.8945 74.2453C71.8664 74.263 71.8338 74.2724 71.8005 74.2724C71.7672 74.2724 71.7346 74.263 71.7065 74.2453L71.3774 73.928C71.3574 73.9029 71.3465 73.8718 71.3465 73.8398C71.3465 73.8078 71.3574 73.7767 71.3774 73.7517L74.8914 69.9557Z" fill="inherit"/>
<path d="M60.5303 78.5348L65.0902 75.9611L64.9962 73.9749C64.9962 73.8456 64.9962 73.8221 65.1137 73.7634L65.572 73.5048C65.6425 73.5048 65.6895 73.4226 65.7366 73.5048C65.7392 73.5557 65.7392 73.6067 65.7366 73.6576L66.1479 82.8949L65.8541 83.0594L58.1681 77.9237C58.1249 77.8976 58.0854 77.866 58.0505 77.8297C58.0505 77.7709 58.0505 77.7357 58.1328 77.7004L58.6146 77.4301C58.647 77.4012 58.6888 77.3852 58.7322 77.3852C58.7755 77.3852 58.8174 77.4012 58.8497 77.4301L60.5303 78.5348ZM65.1254 76.7485L61.1884 78.9461L64.2675 81.0028C64.7846 81.3554 65.4427 81.9077 65.4427 81.9077C65.4427 81.9077 65.3017 81.0851 65.2665 80.4504L65.1254 76.7485Z" fill="inherit"/>
<path d="M49.3537 88.3476C49.3572 88.3771 49.3495 88.4067 49.3321 88.4307C49.3146 88.4547 49.2888 88.4712 49.2597 88.4769L48.7073 88.5827C48.6779 88.5862 48.6482 88.5785 48.6243 88.561C48.6003 88.5436 48.5838 88.5178 48.5781 88.4887L47.7554 84.1521C47.5785 83.0956 47.8231 82.0119 48.4367 81.1338C49.0503 80.2558 49.9838 79.6536 51.0368 79.4565C52.0897 79.2595 53.1778 79.4834 54.0674 80.0801C54.957 80.6769 55.5769 81.5988 55.794 82.6478L56.6167 86.9961C56.6207 87.0239 56.6146 87.0523 56.5995 87.076C56.5844 87.0997 56.5613 87.1172 56.5344 87.1254L55.982 87.2312C55.9515 87.2329 55.9213 87.2247 55.8958 87.2077C55.8704 87.1907 55.8511 87.166 55.841 87.1371L55.0301 82.8005C54.9766 82.3533 54.8322 81.9218 54.6057 81.5325C54.3792 81.1432 54.0756 80.8043 53.7133 80.5367C53.351 80.2691 52.9379 80.0784 52.4992 79.9764C52.0605 79.8744 51.6056 79.8631 51.1624 79.9434C50.7192 80.0237 50.2972 80.1938 49.9222 80.4432C49.5471 80.6927 49.2271 81.0162 48.9818 81.3939C48.7364 81.7715 48.5709 82.1954 48.4954 82.6394C48.4199 83.0835 48.436 83.5382 48.5428 83.9758L49.3537 88.3476Z" fill="inherit"/>
</svg>
