<svg width="23" height="19" viewBox="0 0 23 19" fill="inherit" xmlns="http://www.w3.org/2000/svg">
<path d="M20.1699 3.43115C20.0828 3.08975 19.8354 2.83198 19.5524 2.75294C19.0517 2.61202 16.6116 2.29125 11.4563 2.29125C6.30094 2.29125 3.86305 2.61202 3.35783 2.75294C3.0783 2.83084 2.83084 3.0886 2.74263 3.43115C2.61775 3.91689 2.29125 5.95267 2.29125 9.165C2.29125 12.3773 2.61775 14.412 2.74263 14.9C2.82969 15.2402 3.07715 15.498 3.35897 15.5759C3.86305 15.718 6.30094 16.0387 11.4563 16.0387C16.6116 16.0387 19.0506 15.718 19.5547 15.5771C19.8342 15.4992 20.0817 15.2414 20.1699 14.8989C20.2948 14.4131 20.6213 12.3728 20.6213 9.165C20.6213 5.95725 20.2948 3.91804 20.1699 3.43115ZM22.389 2.86177C22.9125 4.90328 22.9125 9.165 22.9125 9.165C22.9125 9.165 22.9125 13.4267 22.389 15.4682C22.098 16.5967 21.2468 17.4845 20.1687 17.7847C18.2109 18.33 11.4563 18.33 11.4563 18.33C11.4563 18.33 4.70508 18.33 2.74377 17.7847C1.66116 17.4799 0.811103 16.5932 0.523551 15.4682C3.41423e-08 13.4267 0 9.165 0 9.165C0 9.165 3.41423e-08 4.90328 0.523551 2.86177C0.81454 1.73333 1.66574 0.845471 2.74377 0.545317C4.70508 -2.04854e-07 11.4563 0 11.4563 0C11.4563 0 18.2109 -2.04854e-07 20.1687 0.545317C21.2513 0.850054 22.1014 1.73677 22.389 2.86177ZM9.165 13.1747V5.15531L16.0388 9.165L9.165 13.1747Z" fill="inherit"/>
</svg>
