<?xml version="1.0" encoding="utf-8"?><svg viewBox="0 0 20 20" xmlns="http://www.w3.org/2000/svg" xmlns:xlink="http://www.w3.org/1999/xlink"><style>:root>svg{display:none}:root>svg:target{display:block}</style><svg fill="none" viewBox="0 0 14 14" id="arrow-down" xmlns="http://www.w3.org/2000/svg"><path fill-rule="evenodd" clip-rule="evenodd" d="M1.44 4.065a.438.438 0 01.62 0L7 9.006l4.94-4.94a.439.439 0 01.62.619l-5.25 5.25a.438.438 0 01-.62 0l-5.25-5.25a.437.437 0 010-.62z" fill="#fff"/></svg><svg fill="inherit" viewBox="0 0 20 20" id="instagram" xmlns="http://www.w3.org/2000/svg"><path d="M13.637 1H6.362A5.368 5.368 0 001 6.363v7.275A5.368 5.368 0 006.363 19h7.275A5.368 5.368 0 0019 13.637V6.362A5.368 5.368 0 0013.637 1zm3.553 12.637a3.55 3.55 0 01-3.553 3.553H6.362a3.552 3.552 0 01-3.552-3.553V6.362A3.552 3.552 0 016.363 2.81h7.275a3.552 3.552 0 013.552 3.553v7.275z"/><path d="M10 5.345A4.661 4.661 0 005.346 10 4.66 4.66 0 0010 14.655 4.662 4.662 0 0014.655 10 4.661 4.661 0 0010 5.346v-.001zm0 7.5a2.845 2.845 0 110-5.69 2.845 2.845 0 010 5.69zm4.665-6.35a1.115 1.115 0 100-2.23 1.115 1.115 0 000 2.23z"/></svg><svg fill="inherit" viewBox="0 0 19 19" id="pinterest" xmlns="http://www.w3.org/2000/svg"><path d="M8.11 10.937c-.337 1.651-.748 3.235-1.97 4.063-.377-2.496.554-4.373.985-6.363-.736-1.157.089-3.487 1.642-2.912 1.912.705-1.655 4.303.74 4.751 2.5.47 3.521-4.048 1.97-5.52-2.24-2.12-6.52-.047-5.994 2.99.128.745.95.97.328 1.994-1.433-.296-1.86-1.352-1.807-2.76.09-2.304 2.217-3.915 4.354-4.14 2.7-.282 5.233.927 5.583 3.298.394 2.676-1.219 5.575-4.106 5.366-.781-.057-1.112-.42-1.725-.768v.001z"/><path d="M3.6 1.8a1.8 1.8 0 00-1.8 1.8v10.8a1.8 1.8 0 001.8 1.8h10.8a1.8 1.8 0 001.8-1.8V3.6a1.8 1.8 0 00-1.8-1.8H3.6zm0-1.8h10.8A3.6 3.6 0 0118 3.6v10.8a3.6 3.6 0 01-3.6 3.6H3.6A3.6 3.6 0 010 14.4V3.6A3.6 3.6 0 013.6 0z"/></svg></svg>