<?xml version="1.0" encoding="utf-8"?><svg viewBox="0 0 269 89" xmlns="http://www.w3.org/2000/svg" xmlns:xlink="http://www.w3.org/1999/xlink"><style>:root>svg{display:none}:root>svg:target{display:block}</style><svg fill="inherit" viewBox="0 0 269 25" id="architizer" xmlns="http://www.w3.org/2000/svg"><g clip-path="url(#aa)"><path d="M56.75 7.254c-2.8 0-4.54 1.347-5.41 2.907V.4H48.4v24.174h2.94v-9.783c0-2.67 1.623-4.938 4.468-4.938 2.47 0 3.81 1.205 3.81 4.867v9.854h2.94v-10.61c0-1.985-.353-3.45-1.058-4.56-.941-1.395-2.564-2.15-4.75-2.15zm19.942-4.986h-2.94v5.364h-3.245v2.458h3.246v14.485h2.94V10.09h3.715V7.656h-3.716V2.268zM39.487 22.543c-2.87 0-4.986-2.34-4.986-6.404s1.976-6.427 4.986-6.427c2.47 0 3.904 1.418 4.61 3.426l2.445-1.276c-1.129-2.883-3.528-4.584-7.032-4.584-4.703 0-7.996 3.497-7.996 8.932 0 5.435 3.01 8.814 7.996 8.814 3.293 0 5.81-1.536 7.197-4.348l-2.305-1.182c-.894 1.89-2.422 3.049-4.915 3.049zm61.758-12.619V7.656h-12.7v2.458h9.031L88.1 22.235v2.34h13.264v-2.458h-9.807l9.689-12.193zm8.914-2.67c-4.633 0-7.996 3.592-7.996 8.79 0 5.648 3.221 8.956 8.043 8.956 4.609 0 6.796-2.906 7.431-3.922l-2.116-1.536a5.702 5.702 0 01-5.033 2.882c-3.716 0-5.268-2.882-5.362-5.67h12.605v-.639c0-5.01-2.516-8.86-7.572-8.86zm-4.916 7.184c.33-2.954 2.329-4.797 4.916-4.797 2.657 0 4.28 1.82 4.539 4.797h-9.455zm22.836-7.231c-2.328 0-4.703 1.678-5.103 3.639v-3.19h-2.94v16.919h2.94v-8.861c0-2.836 1.764-5.695 4.962-5.695.377 0 .729.047 1.106.118V7.325a4.682 4.682 0 00-.965-.118zm-62.887.449h2.94v16.919h-2.94V7.656zm1.458-3.592c1.117 0 2.023-.91 2.023-2.032A2.027 2.027 0 0066.65 0c-1.117 0-2.022.91-2.022 2.032 0 1.122.906 2.032 2.022 2.032zm-41.298 6.782v-3.19h-2.94v16.919h2.94v-8.861c0-2.836 1.764-5.695 4.963-5.695.376 0 .729.047 1.105.118V7.325a4.31 4.31 0 00-.964-.118c-2.352 0-4.704 1.678-5.104 3.639zM8.608.402L0 24.575h12.7v-2.836H4.21l5.973-17.651h.047l6.938 20.487h3.363L12.065.402H8.608zm74.176 7.254h2.94v16.919h-2.94V7.656zm1.481-3.592c1.117 0 2.023-.91 2.023-2.032A2.027 2.027 0 0084.265 0c-1.117 0-2.022.91-2.022 2.032 0 1.122.905 2.032 2.022 2.032zm48.848 20.44h-1.388L140.638.732h1.67l8.867 23.772h-1.364l-2.799-7.49h-11.218l-2.681 7.49zm9.807-18.431c-.447-1.229-1.153-3.214-1.458-4.3-.424 1.18-1.153 3.118-1.576 4.252l-3.622 9.736h10.277l-3.621-9.688zm21.213-2.292v9.853h9.642v1.158h-9.642v9.712h-1.152v-9.712h-9.596v-1.158h9.596V3.781h1.152zm13.264 20.723h-1.387L184.9.732h1.669l8.867 23.772h-1.364l-2.776-7.49h-11.218l-2.681 7.49zm9.807-18.431c-.447-1.229-1.152-3.214-1.458-4.3-.423 1.18-1.152 3.118-1.576 4.252l-3.621 9.736h10.277l-3.622-9.688zm21.872 12.358c.423 1.37.823 2.977 1.035 3.78h.047c.212-.803.635-2.268 1.152-3.922l3.316-10.42h1.317l-5.385 16.635h-1.012l-3.292-11.153c-.423-1.37-.776-2.789-.87-3.261h-.047c-.094.496-.424 1.843-.823 3.284l-3.175 11.13h-1.176l-5.48-16.635h1.435l3.457 10.585a87.729 87.729 0 011.223 3.994h.047c.211-.85.588-2.528.964-3.923l3.034-10.656h1.176l3.057 10.562zm7.62-6.026c-.047-3.26 2.54-4.938 5.88-4.938 1.763 0 3.645.354 4.774 1.725.588.732.964 1.748.964 3.355v8.838c0 1.465.235 2.268 1.646 2.268.376 0 .753-.047 1.106-.165v1.04a5.072 5.072 0 01-1.459.212c-1.599 0-2.469-.709-2.469-2.481 0-.213 0-.45.047-.662h-.047c-.729 1.749-2.399 3.332-5.668 3.332-3.551 0-5.291-2.174-5.291-4.962 0-2.86 1.763-4.206 5.362-4.82l4.633-.804c.799-.142.964-.307.964-.969v-.567c0-2.86-1.388-4.206-4.562-4.206-3.387 0-4.728 1.678-4.728 4.513l-1.152-.709zm10.442 2.694c-.235.166-1.011.355-2.305.567l-2.516.45c-2.328.425-4.798.944-4.798 3.78 0 2.481 1.693 3.922 4.28 3.922 3.481 0 5.316-2.764 5.316-5.623l.023-3.096zm12.982-6.285a5.45 5.45 0 00-1.246-.142c-3.128 0-4.869 3.072-4.869 5.884v9.971h-1.293V7.87h1.293v3.426c.494-1.843 2.376-3.852 4.774-3.852.471-.023.918.024 1.365.166l-.024 1.205zm12.512 2.434h.047V.732h1.293v23.772h-1.293v-3.45h-.047c-.706 1.985-2.634 3.875-5.715 3.875-4.492 0-7.032-3.355-7.032-8.814 0-5.387 2.775-8.672 7.032-8.672 3.386 0 4.962 1.89 5.715 3.805zm-5.598-2.694c-3.621 0-5.738 2.812-5.738 7.632 0 4.939 2.258 7.632 5.809 7.632 3.457 0 5.668-2.693 5.668-7.655 0-4.868-2.211-7.61-5.739-7.61zm20.296 2.434a6.226 6.226 0 00-4.985-2.41c-2.376.047-4.21 1.11-4.21 3.19 0 2.079 1.293 2.717 3.763 3.331l1.975.496c2.893.71 5.127 1.654 5.127 4.514 0 3.048-2.54 4.867-6.185 4.867-3.198 0-5.527-1.607-6.609-3.048l.894-.969a7.131 7.131 0 005.856 2.86c3.175-.048 4.704-1.513 4.704-3.592-.047-2.245-1.67-2.86-3.928-3.403l-2.399-.59c-2.681-.639-4.515-1.678-4.515-4.325 0-2.835 2.54-4.371 5.715-4.395 2.704 0 4.492 1.11 5.644 2.528l-.847.946z"/></g><defs><clipPath id="aa"><path d="M0 0h269v25H0z"/></clipPath></defs></svg><svg fill="none" viewBox="0 0 14 14" id="arrow-down" xmlns="http://www.w3.org/2000/svg"><path fill-rule="evenodd" clip-rule="evenodd" d="M1.44 4.065a.438.438 0 01.62 0L7 9.006l4.94-4.94a.439.439 0 01.62.619l-5.25 5.25a.438.438 0 01-.62 0l-5.25-5.25a.437.437 0 010-.62z" fill="#fff"/></svg><svg fill="inherit" viewBox="0 0 19 19" id="facebook" xmlns="http://www.w3.org/2000/svg"><path d="M7.695 5.937v1.377H6.687v1.683h1.008V14h2.072V8.997h1.39s.131-.807.194-1.69H9.775v-1.15c0-.173.226-.404.45-.404h1.128V4H9.818C7.644 4 7.695 5.685 7.695 5.937z"/><path d="M3.666 1.833a1.833 1.833 0 00-1.833 1.833v10.998a1.833 1.833 0 001.833 1.833h10.998a1.833 1.833 0 001.833-1.833V3.666a1.833 1.833 0 00-1.833-1.833H3.666zm0-1.833h10.998a3.666 3.666 0 013.666 3.666v10.998a3.666 3.666 0 01-3.666 3.666H3.666A3.666 3.666 0 010 14.664V3.666A3.666 3.666 0 013.666 0z"/></svg><svg fill="inherit" viewBox="0 0 20 20" id="instagram" xmlns="http://www.w3.org/2000/svg"><path d="M13.637 1H6.362A5.368 5.368 0 001 6.363v7.275A5.368 5.368 0 006.363 19h7.275A5.368 5.368 0 0019 13.637V6.362A5.368 5.368 0 0013.637 1zm3.553 12.637a3.55 3.55 0 01-3.553 3.553H6.362a3.552 3.552 0 01-3.552-3.553V6.362A3.552 3.552 0 016.363 2.81h7.275a3.552 3.552 0 013.552 3.553v7.275z"/><path d="M10 5.345A4.661 4.661 0 005.346 10 4.66 4.66 0 0010 14.655 4.662 4.662 0 0014.655 10 4.661 4.661 0 0010 5.346v-.001zm0 7.5a2.845 2.845 0 110-5.69 2.845 2.845 0 010 5.69zm4.665-6.35a1.115 1.115 0 100-2.23 1.115 1.115 0 000 2.23z"/></svg><svg fill="inherit" viewBox="0 0 21 21" id="linkedin" xmlns="http://www.w3.org/2000/svg"><path d="M15.292 11.583v3.543h-2.054V11.82c0-.83-.297-1.396-1.04-1.396-.568 0-.906.381-1.055.75-.054.133-.068.317-.068.501v3.451H9.02s.028-5.598 0-6.178h2.055v.875l-.013.02h.013v-.02c.273-.421.76-1.021 1.852-1.021 1.35 0 2.365.884 2.365 2.781zM6.87 5.968c-.703 0-1.163.462-1.163 1.068 0 .594.447 1.068 1.136 1.068h.013c.717 0 1.163-.475 1.163-1.068-.014-.606-.446-1.068-1.15-1.068zm-1.04 9.158h2.055V8.948H5.83v6.178z"/><path d="M4.717 2.817a1.9 1.9 0 00-1.9 1.9v11.4a1.9 1.9 0 001.9 1.9h11.4a1.9 1.9 0 001.9-1.9v-11.4a1.9 1.9 0 00-1.9-1.9h-11.4zm0-1.9h11.4a3.8 3.8 0 013.8 3.8v11.4a3.8 3.8 0 01-3.8 3.8h-11.4a3.8 3.8 0 01-3.8-3.8v-11.4a3.8 3.8 0 013.8-3.8z"/></svg><svg fill="inherit" viewBox="0 0 89 89" id="logo-circle" xmlns="http://www.w3.org/2000/svg"><path d="M31.02 59.92a.412.412 0 00.376.375h1.892a.411.411 0 00.376-.376V46.04h5.688l13.739 13.974a.882.882 0 00.705.282h2.562c.188 0 .282-.094.282-.247 0-.152-.094-.188-.188-.282L41.48 44.618l14.102-12.211c.153-.141.2-.235.2-.33a.176.176 0 00-.2-.187h-2.491a1.175 1.175 0 00-.905.376L38.988 43.689h-5.324V32.266a.4.4 0 00-.376-.376h-1.892a.4.4 0 00-.376.376v11.423h-4.595a.306.306 0 00-.282.318v1.727a.306.306 0 00.282.317h4.595V59.92zm31.155-2.093h-1.457a.505.505 0 00-.505.506v1.457c0 .279.226.505.505.505h1.457c.28 0 .506-.226.506-.505v-1.457a.505.505 0 00-.505-.506zM29.939 78.758l3.878 1.363 1.011-1.01c.13-.13.176-.13.34-.071l1.576.564c.082 0 .094.094.07.141a.48.48 0 01-.106.141l-6.522 6.358-1.375-.493-.976-9.062a.775.775 0 010-.176.106.106 0 01.141 0l1.61.553c.165 0 .2.082.224.27l.129 1.422zm2.738 2.538l-2.632-.952.188 1.74a15.5 15.5 0 010 1.622h.082c.335-.41.692-.803 1.07-1.176l1.292-1.234zm-12.645 0a.176.176 0 01-.235 0l-3.08-2.432c-1.61-1.281-2.068-3.068-.928-4.513a2.61 2.61 0 013.068-.811 4.325 4.325 0 010-.729l.152-2.562a.294.294 0 010-.2s.083-.058.153 0l1.47 1.176a.27.27 0 01.081.247l-.2 3.032 1.423 1.175 1.54-1.951a.165.165 0 01.234 0l1.246.976a.163.163 0 01.037.18.163.163 0 01-.037.055l-4.924 6.358zm-.611-2.35l1.669-2.104-1.61-1.292c-.823-.659-1.67-.694-2.186 0-.518.693-.306 1.48.528 2.139l1.599 1.257zM8.914 64.526c.082.117.07.211-.059.329a2.15 2.15 0 00-.176 2.856 2.762 2.762 0 004.618-3.02 2.08 2.08 0 00-2.514-1.023c-.177.082-.259 0-.353-.094l-.764-1.175a.224.224 0 010-.318c1.516-.999 3.62-.329 4.995 1.763a4.373 4.373 0 11-7.322 4.783c-1.457-2.244-.881-4.454.517-5.37.082 0 .188 0 .282.093l.776 1.176zM8.62 48.637a.188.188 0 01.212.117l.364 1.54a.2.2 0 01-.13.211l-2.925.694 1.175 4.7 2.926-.704a.188.188 0 01.2.129l.34 1.575a.176.176 0 01-.117.2l-7.933 1.868a.164.164 0 01-.2-.117l-.364-1.54a.188.188 0 01.118-.212l3.42-.81-1.175-4.701-3.42.81a.176.176 0 01-.2-.117l-.317-1.54a.176.176 0 01.129-.2l7.897-1.903zm.094-6.123a.165.165 0 01.165.176v1.575a.188.188 0 01-.176.164l-8.121-.258a.164.164 0 01-.153-.176V42.42a.176.176 0 01.176-.165l8.11.259zM2.45 37.12a.246.246 0 01-.247.14l-1.175-.328a.235.235 0 01-.141-.236l2.127-7.732a.235.235 0 01.247-.13l1.175.318a.246.246 0 01.141.246l-.846 2.938 6.452 1.775a.2.2 0 01.118.212l-.423 1.516a.188.188 0 01-.212.117l-6.405-1.775-.81 2.939zm8.333-12.505l1.61 1.034 2.68-4.172a.235.235 0 01.27-.058l1.022.658a.235.235 0 010 .27l-3.631 5.641a.188.188 0 01-.236 0L5.67 23.593a.165.165 0 010-.224l3.585-5.535a.259.259 0 01.27 0l1.023.658a.234.234 0 01.058.27l-2.632 4.102 1.445.94 2.41-3.749a.235.235 0 01.27-.058l1.022.658a.235.235 0 010 .27l-2.338 3.69zm9.93-13.139c-.105.094-.2.094-.329 0a2.162 2.162 0 00-2.867.13 2.642 2.642 0 00-.282 3.819 2.621 2.621 0 003.796.458 2.103 2.103 0 00.775-2.75c-.094-.165-.082-.247 0-.364l1.093-.893a.224.224 0 01.318 0c1.175 1.41.728 3.525-1.176 5.159a4.369 4.369 0 01-4.891.567 4.371 4.371 0 01-.667-7.313c2.068-1.704 4.336-1.375 5.406-.082a.211.211 0 01-.06.293l-1.116.976zM25.05 6.61a.235.235 0 01-.259-.105l-.446-1.175a.258.258 0 01.117-.259l7.475-2.903a.247.247 0 01.258.106l.447 1.175a.246.246 0 01-.106.259l-2.832 1.175 2.456 6.205a.176.176 0 01-.094.224l-1.469.575a.164.164 0 01-.211-.094l-2.468-6.205-2.868 1.023zM44.465.664a.2.2 0 01.164-.188l1.575-.082a.188.188 0 01.176.164l.224 4.243a3.912 3.912 0 01-4.09 4.407 3.913 3.913 0 01-4.525-3.96l-.176-4.243a.188.188 0 01.164-.177l1.575-.082a.188.188 0 01.177.165l.223 4.219c.082 1.75.987 2.55 2.527 2.468 1.54-.083 2.35-.964 2.256-2.715l-.27-4.22zm8.509.716a.176.176 0 01.2-.117l3.772 1.07c1.986.564 3.09 2.033 2.585 3.82a2.586 2.586 0 01-2.526 1.915c.107.213.202.433.282.658l.799 2.35a.34.34 0 010 .2c0 .059 0 .094-.13.07l-1.81-.516a.282.282 0 01-.176-.2l-.975-2.88-1.751-.505-.67 2.35a.188.188 0 01-.212.118l-1.516-.435a.188.188 0 01-.117-.211l2.245-7.686zm1.445 1.905L53.69 5.87l1.963.553c1.023.293 1.81 0 2.033-.8.224-.799-.282-1.492-1.293-1.774l-1.974-.564zM67.04 15.178l-3.396-2.35-1.175.717c-.164.094-.211.082-.34 0l-1.387-.952c-.07 0-.07-.118 0-.141a.496.496 0 01.14-.118l7.91-4.501 1.175.834-1.363 9.003a.342.342 0 010 .164.118.118 0 11-.235 0l-1.375-.952c-.141-.094-.165-.129-.141-.317l.188-1.387zm-1.985-3.22l2.35 1.575.247-1.716c.097-.531.222-1.057.376-1.575h-.07c-.434.326-.885.628-1.352.905l-1.551.811zm8.015 8.908l2.585 3.279a.235.235 0 010 .27l-.952.752a.235.235 0 01-.282 0l-3.666-4.7a.176.176 0 010-.236l6.37-5.03a.2.2 0 01.246 0l.976 1.246a.188.188 0 010 .235l-5.277 4.184zm5.382 12.869a.117.117 0 01.083-.14l8.038-1.799a.13.13 0 01.141.082l.858 3.879c.4 1.739-.305 2.867-1.516 3.137a1.904 1.904 0 01-1.95-.54 2.162 2.162 0 01-1.764 1.81c-1.504.329-2.585-.6-3.008-2.48l-.882-3.949zm1.563 3.76c.341 1.552 1.082 2.128 2.151 1.881 1.07-.247 1.504-1.034 1.175-2.444l-.764-3.432-3.29.788.728 3.208zm6.159-4.794l-2.892.646.776 3.526c.27 1.175 1 1.516 1.834 1.328.834-.188 1.304-.881.987-2.292l-.705-3.208zm1.527 20.049a.118.118 0 01.094.13v.552a.14.14 0 01-.129.106l-4.442-.447a3.714 3.714 0 01-3.596-4.513 3.714 3.714 0 014.5-3.714l4.396.494a.129.129 0 01.094.13v.552a.141.141 0 01-.13.105l-4.383-.493a2.997 2.997 0 00-3.714 2.914 2.962 2.962 0 002.974 3.644l4.336.54zm-2.221 7.792a.13.13 0 010 .153l-1.55 3.243c-.87 1.822-2.351 2.586-3.89 1.869a2.538 2.538 0 01-1.211-3.314s-.33.105-.776.211l-2.903.658h-.176a.07.07 0 01-.018-.081.07.07 0 01.018-.024l.305-.623c0-.094 0-.106.165-.13l3.749-.857 1.222-2.68-2.715-1.28a.14.14 0 010-.154l.247-.517a.13.13 0 01.153 0l7.38 3.526zm-.87.458l-3.525-1.692-1.27 2.597c-.716 1.516-.481 2.668.624 3.197 1.104.529 2.268-.106 2.926-1.493L84.611 61zm-9.719 8.956l-2.42-2.257-3.89 4.196a.142.142 0 01-.164.035.142.142 0 01-.048-.035l-.341-.317a.141.141 0 010-.177l4.36-4.7a.129.129 0 01.153 0l6.029 5.617a.129.129 0 010 .153l-4.254 4.571a.165.165 0 01-.189 0l-.329-.305a.176.176 0 010-.188l3.796-4.067-2.174-2.044-3.526 3.807a.176.176 0 01-.188 0l-.329-.317a.142.142 0 010-.176l3.514-3.796zM60.53 78.535l4.56-2.574-.094-1.986c0-.13 0-.153.118-.212l.458-.258c.07 0 .117-.082.165 0 .002.05.002.102 0 .153l.41 9.237-.293.164-7.686-5.135a.577.577 0 01-.117-.094c0-.06 0-.094.082-.13l.482-.27a.177.177 0 01.235 0l1.68 1.105zm4.595-1.786l-3.937 2.197 3.08 2.057c.517.352 1.175.905 1.175.905s-.141-.823-.177-1.458l-.14-3.701zM49.354 88.348a.118.118 0 01-.094.129l-.553.106a.117.117 0 01-.129-.094l-.823-4.337a4.09 4.09 0 018.039-1.504l.823 4.348a.118.118 0 01-.083.13l-.552.105a.141.141 0 01-.141-.094l-.81-4.337a3.301 3.301 0 00-6.05-1.406 3.301 3.301 0 00-.438 2.582l.81 4.372z"/></svg><svg fill="inherit" viewBox="0 0 19 19" id="pinterest" xmlns="http://www.w3.org/2000/svg"><path d="M8.11 10.937c-.337 1.651-.748 3.235-1.97 4.063-.377-2.496.554-4.373.985-6.363-.736-1.157.089-3.487 1.642-2.912 1.912.705-1.655 4.303.74 4.751 2.5.47 3.521-4.048 1.97-5.52-2.24-2.12-6.52-.047-5.994 2.99.128.745.95.97.328 1.994-1.433-.296-1.86-1.352-1.807-2.76.09-2.304 2.217-3.915 4.354-4.14 2.7-.282 5.233.927 5.583 3.298.394 2.676-1.219 5.575-4.106 5.366-.781-.057-1.112-.42-1.725-.768v.001z"/><path d="M3.6 1.8a1.8 1.8 0 00-1.8 1.8v10.8a1.8 1.8 0 001.8 1.8h10.8a1.8 1.8 0 001.8-1.8V3.6a1.8 1.8 0 00-1.8-1.8H3.6zm0-1.8h10.8A3.6 3.6 0 0118 3.6v10.8a3.6 3.6 0 01-3.6 3.6H3.6A3.6 3.6 0 010 14.4V3.6A3.6 3.6 0 013.6 0z"/></svg><svg fill="inherit" viewBox="0 0 20 20" id="vk" xmlns="http://www.w3.org/2000/svg"><path d="M3.902.375A3.54 3.54 0 00.375 3.902v11.955a3.54 3.54 0 003.527 3.527h11.955a3.54 3.54 0 003.527-3.527V3.902A3.54 3.54 0 0015.857.375H3.902zm0 1.728h11.955c1.002 0 1.799.797 1.799 1.799v11.955a1.788 1.788 0 01-1.8 1.799H3.903a1.787 1.787 0 01-1.799-1.8V3.903c0-1.002.797-1.799 1.799-1.799zm5.735 4.519c-.635-.006-1.175 0-1.479.149-.203.098-.357.32-.263.33.118.018.384.075.527.268.181.246.175.803.175.803s.101 1.532-.247 1.725c-.24.131-.567-.136-1.275-1.354a11.485 11.485 0 01-.634-1.32s-.052-.128-.146-.196a.745.745 0 00-.274-.111l-1.69.01s-.254.01-.344.119c-.085.1-.007.3-.007.3s1.323 3.094 2.82 4.654c1.375 1.432 2.934 1.337 2.934 1.337h.709s.212-.024.32-.139c.102-.108.099-.31.099-.31s-.014-.949.425-1.09c.435-.136.988.917 1.58 1.323.449.306.79.239.79.239l1.58-.023s.823-.051.431-.703c-.03-.05-.226-.478-1.17-1.356-.993-.918-.86-.77.333-2.36.726-.968 1.016-1.559.925-1.815-.087-.24-.62-.176-.62-.176l-1.78.01s-.131-.017-.229.041a.497.497 0 00-.155.192s-.284.75-.659 1.388c-.79 1.342-1.11 1.417-1.238 1.333-.3-.196-.226-.784-.226-1.199 0-1.306.199-1.846-.385-1.987-.192-.047-.334-.078-.826-.082h-.001z"/></svg><svg fill="inherit" viewBox="0 0 23 19" id="youtube" xmlns="http://www.w3.org/2000/svg"><path d="M20.17 3.431c-.087-.341-.335-.599-.618-.678-.5-.141-2.94-.462-8.096-.462-5.155 0-7.593.321-8.098.462-.28.078-.527.336-.615.678-.125.486-.452 2.522-.452 5.734s.327 5.247.452 5.735c.087.34.334.598.616.676.504.142 2.942.463 8.097.463 5.156 0 7.595-.321 8.099-.462.28-.078.527-.336.615-.678.125-.486.451-2.526.451-5.734s-.326-5.247-.451-5.734zm2.219-.57c.524 2.042.524 6.304.524 6.304s0 4.262-.524 6.303c-.291 1.129-1.142 2.017-2.22 2.317-1.958.545-8.713.545-8.713.545s-6.75 0-8.712-.545C1.66 17.48.81 16.593.524 15.468 0 13.427 0 9.165 0 9.165s0-4.262.524-6.303C.814 1.733 1.666.845 2.744.545 4.705 0 11.456 0 11.456 0s6.755 0 8.713.545c1.082.305 1.932 1.192 2.22 2.317zM9.165 13.176v-8.02l6.874 4.01-6.874 4.01z"/></svg></svg>